<svg width="170" height="33" viewBox="0 0 170 33" fill="none" xmlns="http://www.w3.org/2000/svg">
<g clip-path="url(#clip0_204_3253)">
<path d="M46.6585 30.3847L46.8637 30.3184C46.8637 30.3184 46.977 30.2744 47.0221 30.2744C47.706 30.0532 49.232 29.2799 49.8009 28.176C50.9625 27.7558 51.8056 27.1814 52.3294 26.4969C53.3309 26.3203 54.1058 25.9001 54.5384 25.6797C55.5399 25.1269 56.2459 24.5973 56.6794 24.0229C57.0439 23.5588 57.2713 23.205 57.4535 22.8295C57.877 22.6091 58.2875 22.3659 58.6832 22.101C60.4375 20.9747 60.8012 18.8978 60.8472 18.6549C60.8472 18.6102 60.8701 18.5439 60.8701 18.5H61.1435C62.897 18.5 65.1972 17.4391 66.4269 16.8432H66.4499C66.6321 16.7554 66.8144 16.6667 66.8825 16.6435C67.293 16.4678 68.1352 16.026 69.0005 15.4733C70.1169 14.7448 70.868 14.0817 71.2785 13.4635C71.3466 13.3748 71.3918 13.2638 71.4378 13.1535L72.1667 12.7118C72.378 12.5805 72.5506 12.398 72.6675 12.1822C72.8727 12.0711 73.032 11.9825 73.0779 11.9385C73.6468 11.5855 73.8972 10.9672 73.6928 10.3705V10.3481C73.5106 9.81849 73.009 9.17785 72.1659 8.97894C71.8704 8.35987 71.2325 8.00679 70.5266 8.00679C70.3673 8.00679 70.231 8.02916 70.1399 8.05073C70.0939 8.05073 69.9117 8.09466 68.5449 8.42617L66.518 8.89028C66.609 8.65551 66.6498 8.40518 66.6381 8.15454C66.6264 7.9039 66.5624 7.65821 66.4499 7.43245C66.1765 6.87967 65.6076 6.5266 65.0149 6.5266C64.8097 6.5266 64.6045 6.57053 64.423 6.6592H64.4001C64.3319 6.70313 64.1727 6.76943 60.5508 9.04525C60.5057 9.06681 60.4605 9.11155 60.4145 9.13311C58.6611 10.6133 58.0232 11.4976 57.864 11.7181C57.72 11.9108 57.5978 12.1181 57.4995 12.3363L57.2261 12.2037C56.5157 11.8984 55.7477 11.7406 54.9711 11.7404C53.5821 11.7404 52.6027 12.27 52.3523 12.425C52.2152 12.4913 51.6915 12.8005 50.9174 13.3972C50.6033 13.6353 50.3202 13.9097 50.0743 14.2143C49.6331 14.303 49.2047 14.4438 48.7986 14.6337C48.389 14.8334 48.0023 15.1418 47.5689 15.4733L47.5467 15.4956C47.4778 15.5619 47.4096 15.6059 47.3185 15.6722C46.8907 15.9914 46.5144 16.371 46.2021 16.7985H46.1569C46.0888 16.8209 45.5191 16.9311 44.7909 17.2626C44.6087 17.3505 44.4264 17.4391 44.2663 17.5502C43.8567 17.5717 43.2189 17.638 42.3766 17.8817H42.3306C42.2625 17.8593 41.6246 17.7491 40.8505 17.7491C40.509 17.7491 40.1897 17.7706 39.9163 17.8154C39.7341 17.837 39.0741 17.948 38.5273 18.103C38.254 18.1685 37.5931 18.3897 36.8198 18.8754C35.1567 18.5 33.4943 18.3897 32.446 18.345C33.4483 17.0421 33.9269 15.5396 33.7677 14.2583C33.4483 11.8283 31.763 10.392 31.1481 9.97266C30.1007 5.73098 27.0485 3.92008 24.5431 3.65408C24.0423 3.1029 23.1081 2.74902 22.0376 2.74902C21.605 2.74902 21.1954 2.79296 20.7849 2.90399C19.4419 3.25707 18.3714 4.25159 18.1662 5.33397C16.8224 6.41636 14.7266 8.84634 15.3193 13.1983C14.8185 13.8613 13.8392 15.5396 14.4992 18.103C14.9548 19.8476 16.0704 21.1065 17.7558 21.7695C16.4587 22.3878 15.3193 23.1171 14.3629 23.9782C14.294 24.0229 14.248 24.0892 14.2028 24.1332C11.9486 24.2434 9.8988 25.1493 8.2816 26.7613C7.12001 27.9115 6.3229 29.2368 5.82214 30.4078H46.6585V30.3847Z" fill="black"/>
<path d="M46.5674 28.9924C46.0888 29.1473 45.2687 29.4557 44.1301 29.4557H44.016C42.8322 29.4341 41.4194 28.8374 40.4179 27.755C39.3926 26.6726 38.8458 25.0383 39.0059 23.4255C39.1652 21.8127 40.1675 20.4651 41.3743 19.7366C41.6416 19.5642 41.933 19.4303 42.2395 19.3388C42.3536 19.294 42.4899 19.2509 42.604 19.2285C42.581 19.2501 42.5588 19.294 42.5359 19.3164C41.3061 21.0842 41.3972 23.3592 41.9891 24.7068C42.2723 25.3516 42.6482 25.9541 43.1056 26.4961C43.6524 27.1428 44.3463 27.657 45.1324 27.9979C45.8614 28.3078 46.6125 28.462 47.3866 28.462H47.6378C47.2504 28.7048 46.8629 28.9037 46.5674 28.9924Z" fill="black"/>
<path d="M49.0498 27.0264C48.5159 27.2123 47.9537 27.3095 47.3866 27.314C46.7741 27.3102 46.1691 27.1823 45.6102 26.9385C44.2663 26.3634 43.5382 25.2371 43.0818 24.2426C42.627 23.2265 42.5359 21.4148 43.5152 19.9793C44.0619 19.2061 44.8361 18.7419 45.4509 18.4775C45.0634 19.6039 44.882 21.3485 46.1569 23.4477V23.4917C46.7599 24.4471 47.6178 25.2256 48.6393 25.7443C49.231 26.0487 49.8695 26.2578 50.5299 26.3634C50.0743 26.6286 49.5284 26.8491 49.0498 27.0264Z" fill="black"/>
<path d="M53.8324 24.5074C53.2857 24.7949 52.5337 25.192 51.5774 25.2367H51.4411C50.0062 25.2367 48.2748 24.5737 47.1592 22.8283C45.1546 19.5587 47.3415 17.3061 48.0704 16.7533C48.5031 16.4218 48.9357 16.0903 49.2772 15.8922C49.1179 16.334 49.0498 16.6655 49.0498 16.7757C48.8897 17.5929 49.0268 18.6529 49.4143 19.6035C49.915 20.8624 50.7803 21.8785 51.9189 22.5191C52.8531 23.0495 53.8094 23.3148 54.7888 23.3148C55.0622 23.3148 55.3125 23.2924 55.5178 23.27C55.0392 23.8004 54.311 24.2645 53.8324 24.5074ZM10.9922 30.3834C11.0825 29.6549 11.2878 28.7706 11.6982 27.8208C12.0397 27.026 12.4494 26.2743 12.9731 25.5898C11.516 25.8773 10.2173 26.5843 9.12467 27.6667C8.37271 28.3952 7.73486 29.3234 7.21112 30.3619H10.9922V30.3834ZM36.2723 30.3834C36.0546 30.19 35.8419 29.9913 35.6344 29.7875C34.7692 28.9256 34.0862 27.4015 33.881 26.3406C33.5165 24.6176 33.7668 22.9393 34.6099 21.3704C34.8833 20.8848 35.2018 20.4199 35.5893 20.0229C33.6987 19.6913 31.8993 19.6698 31.3074 19.6698C31.2369 19.8013 31.1445 19.9206 31.034 20.0229C30.351 20.598 29.7813 20.7298 30.1918 20.3104C30.5784 19.8687 30.5563 19.4046 30.4422 19.2935C30.351 19.2057 30.1918 19.272 30.1006 19.2935C28.9842 19.6913 28.779 19.5148 29.0072 19.3822C29.7045 18.9754 30.347 18.4857 30.9199 17.9244C31.763 16.9962 32.4468 15.6486 32.2867 14.412C32.1045 12.9758 31.2622 11.8494 30.3962 11.1649C30.3059 11.0986 30.2369 11.0323 30.191 11.0099C30.1688 10.9875 30.1458 10.9659 30.1228 10.9659C29.9865 10.8773 29.8043 10.7662 29.668 10.7223C29.4398 10.656 29.5079 10.5018 29.7583 10.4347C29.7362 10.3253 29.7132 10.1927 29.668 10.0817C29.645 9.97143 29.5991 9.86119 29.5769 9.75096C28.5746 6.52536 26.2054 5.1554 24.2475 4.9565H24.1786C23.723 4.91257 23.4045 4.91257 23.3363 4.91257C23.017 4.86863 23.1541 4.73603 23.3363 4.66973C23.4045 4.64736 23.4266 4.58186 23.4045 4.53713C23.1771 4.20562 22.1288 3.89648 21.0361 4.20562C20.5031 4.3555 20.0276 4.65537 19.6693 5.06754C19.6233 5.13384 19.5782 5.22171 19.533 5.28801C19.533 5.31037 19.51 5.33274 19.51 5.35431C19.4641 5.48691 19.6233 5.44218 19.6233 5.44218C20.1479 5.33274 20.3753 5.46534 19.9657 5.68581C19.7145 5.81842 19.35 6.06125 19.0996 6.23779C18.2875 6.84 17.6323 7.61958 17.1869 8.5136C16.6861 9.52969 16.4349 10.7223 16.4809 12.0044C16.5039 12.1801 16.5039 12.534 16.526 12.6442C16.549 12.7769 16.6401 12.9095 16.9586 12.8655C17.3921 12.8216 17.6646 12.7329 17.278 13.0421C17.1187 13.1523 16.6171 13.6172 16.3216 13.9703C15.7289 14.6988 15.2733 16.0472 15.7289 17.7478C16.1164 19.2057 17.0506 20.1778 18.5307 20.6411C19.4189 20.8848 21.4458 21.2163 23.017 21.1276C23.1771 21.1276 23.2222 21.15 23.1992 21.2155C23.1771 21.2818 23.063 21.3265 22.9037 21.3481C22.33 21.445 21.7524 21.5188 21.1724 21.5694C20.9672 21.5917 20.8079 21.7243 20.7849 21.8122V21.8346C20.6716 22.2324 21.5139 22.5631 21.6058 22.6078C21.9244 22.6957 21.7873 22.873 21.651 22.8954C21.0583 23.0056 19.9878 22.762 19.4181 22.718C19.0323 22.6957 18.7351 22.762 18.6218 22.8283C17.278 23.4034 16.1394 24.1319 15.2052 24.9715C14.1793 25.8968 13.3714 27.0271 12.8368 28.285C12.5536 28.9665 12.3546 29.6785 12.2441 30.4058H36.2723V30.3834Z" fill="black"/>
<path d="M36.4775 28.9694C36.9783 29.4775 37.548 30.0079 38.4592 30.3833H42.5589C41.4001 30.0583 40.3585 29.4231 39.5527 28.55C38.937 27.887 38.4592 27.0698 38.1407 26.1424C37.8425 25.2298 37.7337 24.2686 37.8205 23.3146C37.9186 22.3524 38.2549 21.4275 38.8007 20.6194C39.1652 20.0443 39.643 19.5586 40.1675 19.1393C40.1216 19.1393 40.0526 19.1616 40.0075 19.1616C40.0075 19.1616 39.3015 19.2495 38.8007 19.4045C38.3 19.5586 36.5686 20.1777 35.6574 21.9007C34.7241 23.6238 34.8373 25.1255 35.0426 26.0977C35.2478 27.0922 35.8627 28.3735 36.4775 28.9694ZM72.4171 11.0098C72.303 11.0761 72.1437 11.1647 72.0067 11.2526V11.2302C71.8014 10.8995 71.5289 10.6791 71.1874 10.612C70.6636 10.5017 70.0028 10.6998 69.1376 11.2526C67.8619 12.0482 65.8802 12.5115 65.858 12.5115C65.8253 12.5163 65.7941 12.528 65.7665 12.5457C65.739 12.5634 65.7157 12.5868 65.6984 12.6142C65.681 12.6416 65.67 12.6723 65.6661 12.7042C65.6622 12.7362 65.6655 12.7685 65.6758 12.7991C65.6894 12.8543 65.7213 12.9037 65.7665 12.9396C65.8117 12.9756 65.8678 12.9961 65.9262 12.998H65.9943C66.0854 12.9756 68.0901 12.5115 69.4339 11.672C70.1621 11.2087 70.731 11.009 71.0963 11.0984C71.2785 11.1424 71.4148 11.2302 71.5289 11.4291C71.6881 11.6728 71.5519 11.8046 71.5289 11.8046C71.5059 11.8046 70.891 12.2024 70.6177 12.3574C70.3989 12.1377 70.1096 11.9973 69.7976 11.9595C69.3428 11.9156 68.8642 12.1145 68.3856 12.5563C67.224 13.6163 65.9721 13.9478 65.9491 13.9702C65.8855 13.9915 65.8319 14.0346 65.7984 14.0914C65.7649 14.1483 65.7537 14.215 65.7669 14.2793C65.7891 14.3895 65.9032 14.4558 66.0173 14.4558H66.0854C66.1314 14.4335 67.4752 14.0804 68.7271 12.9317C69.0916 12.6002 69.4331 12.4452 69.7294 12.4684C70.025 12.49 70.208 12.6889 70.2532 12.7328C70.2766 12.7609 70.2893 12.7961 70.2893 12.8322C70.2893 12.8684 70.2766 12.9036 70.2532 12.9317C69.5472 14.0141 67.0877 15.384 66.3818 15.6716C65.858 15.8921 63.763 16.9737 62.0539 17.3276C61.8725 17.3723 61.6673 17.3939 61.485 17.4154H61.4169C61.1657 17.4154 60.0049 17.4378 59.6626 17.1071C59.1618 16.6206 58.9796 16.9745 59.1388 17.5928C58.5921 17.9243 57.7728 18.3884 57.5676 18.521C56.9979 18.8517 56.2697 18.4762 56.1327 18.4762C55.8371 18.4762 56.5431 19.3382 57.1342 19.4268C57.7728 19.5147 58.9566 18.7854 58.9566 18.7854L59.4122 18.4978C59.4122 18.4978 59.1388 20.1777 57.864 21.0173C57.0669 21.5253 56.7245 21.7018 56.429 21.8344C56.2238 21.9223 55.6319 22.2322 54.7437 22.2322C54.1058 22.2322 53.3539 22.0773 52.4886 21.5916C50.4158 20.3982 50.0062 18.0569 50.1884 17.0184C50.1884 17.0184 50.4158 15.4719 51.6455 14.5661C52.4665 13.9478 52.9442 13.6826 52.9442 13.6826C52.9442 13.6826 53.7183 13.1969 54.857 13.1969C55.3577 13.1969 55.9274 13.2848 56.5201 13.55C56.3379 13.6826 56.1786 13.8152 56.0875 13.9254C55.8593 14.2793 55.5178 15.0517 55.7452 15.0517C55.9053 15.0517 56.0185 14.6547 56.5661 14.3895C56.8386 14.2569 58.1143 13.5284 58.1143 13.5284C58.1143 13.5284 58.1595 13.3287 58.2276 13.2185C58.2276 13.2185 58.3877 12.8878 58.7062 12.4237C58.7292 12.4013 58.7744 12.3358 58.8433 12.224C59.0256 11.9819 59.2759 11.6943 59.5715 11.4291C59.9138 11.0761 60.3924 10.6343 61.0294 10.0815C61.0294 10.0815 64.5823 7.85047 64.7416 7.7626C64.7646 7.74023 64.8097 7.74023 64.8327 7.74023C65.1282 7.74023 65.5617 8.24828 65.0379 8.93286C64.6053 9.48563 64.1037 9.86108 63.7163 10.1478C63.603 10.2365 63.4437 10.3252 63.3304 10.3691C62.7829 10.5457 62.0769 10.9658 61.9628 11.0537C61.8495 11.1416 61.8495 11.2965 61.9858 11.2302C62.4644 11.0321 63.2155 10.8548 63.3526 10.8109C64.1727 10.6343 70.1169 9.2428 70.2072 9.22043C70.231 9.22043 70.2992 9.19806 70.3443 9.19806C70.5495 9.19806 70.891 9.26436 70.9822 9.68454V9.72847L65.5395 11.2965C65.5076 11.3059 65.4779 11.3215 65.4524 11.3424C65.4268 11.3633 65.4059 11.389 65.3909 11.418C65.376 11.447 65.3672 11.4787 65.3652 11.5111C65.3632 11.5435 65.3681 11.5759 65.3794 11.6065C65.4024 11.6943 65.4935 11.7606 65.5847 11.7822H65.6979L70.5495 10.3915C70.6398 10.3691 70.8229 10.3252 71.1874 10.2141L71.2325 10.1926C71.3466 10.1702 71.4378 10.1478 71.5281 10.1478C72.0296 10.1478 72.326 10.5457 72.4171 10.7885C72.5534 10.8772 72.5074 10.9435 72.4171 11.0098Z" fill="black"/>
<path d="M22.1977 15.4062C21.8784 15.6275 21.8102 15.7816 21.7643 15.8927C21.7191 16.0029 21.7191 16.1131 21.7421 16.1579C21.7643 16.2018 21.7421 16.2681 21.6961 16.2897C21.651 16.312 21.6058 16.2897 21.582 16.2897L21.5139 16.2234C21.4236 16.0253 21.5139 15.5827 21.7421 15.3846C21.8324 15.296 21.9473 15.2297 22.0606 15.1849C22.1066 15.1634 22.2199 15.1194 22.2888 15.2073C22.334 15.296 22.2658 15.3615 22.1977 15.4062ZM29.668 13.9931C29.5991 14.0147 29.5769 13.926 29.5309 13.8158C29.3257 14.081 28.8709 14.5003 28.802 14.589L28.5286 14.9868C28.3923 15.2297 28.2782 15.4501 28.096 15.6714C27.8686 15.959 27.5952 16.2234 27.2759 16.4007C26.661 16.7538 25.9099 16.9303 25.2039 16.8201C24.8335 16.7458 24.4739 16.6272 24.1334 16.467C23.8601 16.3344 23.5637 16.1794 23.2682 16.1579C22.9259 16.1579 22.5622 16.1794 22.2199 16.1355C22.1066 16.1131 21.9925 16.0692 21.9695 15.959C21.9243 15.804 22.0376 15.6275 22.1977 15.6275C22.2429 15.6275 22.311 15.649 22.357 15.649C22.4703 15.649 22.5844 15.6714 22.6985 15.6714C23.9282 15.7153 25.2039 15.5172 26.3655 15.1634C27.0945 14.9421 27.8004 14.6553 28.4153 14.2359C28.6657 14.0586 28.9161 13.8605 29.1213 13.6392C29.1435 13.5953 29.1894 13.5514 29.2116 13.529C29.1894 13.5066 29.1664 13.5066 29.1435 13.5066C29.0753 13.4843 29.0753 13.374 29.1894 13.3517C29.2496 13.3425 29.311 13.3456 29.3698 13.3609C29.4286 13.3761 29.4835 13.4032 29.5309 13.4403C29.6076 13.5191 29.6557 13.6201 29.668 13.7279C29.7583 13.8158 29.7583 13.9715 29.668 13.9931ZM28.0278 15.0084C26.9344 15.5835 25.6817 15.8927 24.4519 16.0468C24.7822 16.2029 25.1357 16.3072 25.4994 16.356C25.8417 16.3784 26.1603 16.3344 26.4788 16.2457C26.7981 16.1579 27.1166 16.0029 27.39 15.804C27.6633 15.5612 27.8686 15.296 28.0278 15.0084ZM21.0813 12.4458C20.876 12.0927 20.7628 11.6949 20.6938 11.2971C20.6257 10.9001 20.6035 10.4799 20.6938 10.0829C20.7628 9.68512 20.945 9.33205 21.2865 9.11078C21.5599 8.91107 21.9014 8.80084 22.2429 8.80084C22.334 8.80084 22.4251 8.80084 22.5162 8.8232C23.3815 8.99974 23.7919 9.68512 24.1334 10.6565C24.5201 11.7173 24.2475 13.0425 23.5407 13.3301C23.3593 13.3964 23.0859 13.4843 23.0859 13.4843C22.9037 13.529 22.7215 13.5721 22.5392 13.5721C22.334 13.5721 22.1288 13.529 21.9465 13.418C21.5599 13.1751 21.2865 12.7997 21.0813 12.4458ZM21.3768 12.2916C21.582 12.6671 21.8332 12.9547 22.1066 13.1088C22.2429 13.1751 22.38 13.2191 22.5392 13.2191C22.6755 13.2191 22.8126 13.1975 22.9948 13.1528C23.063 13.1312 23.2903 13.0649 23.4045 13.021C23.6318 12.9323 23.8149 12.6231 23.9052 12.2253C23.9282 12.0704 23.9512 11.9162 23.9512 11.762C23.9052 12.2693 23.6318 12.6671 23.2682 12.7334C22.7215 12.866 22.1066 12.2916 21.9014 11.4521C21.8573 11.2412 21.8345 11.0266 21.8332 10.8114C21.9465 10.944 22.0836 11.0103 22.2437 10.9664C22.4481 10.9217 22.5614 10.6565 22.4932 10.3913C22.4251 10.1932 22.2658 10.0382 22.1066 10.0158C22.2199 9.86166 22.38 9.75142 22.5392 9.70669C22.9497 9.61882 23.3815 9.88402 23.6557 10.3697C23.6557 10.3473 23.6318 10.3258 23.6318 10.3034C23.3593 9.77299 22.8807 9.22101 21.9695 9.46465C20.7628 9.77299 21.0361 11.2971 21.1732 11.7612C21.2184 11.9378 21.2857 12.1151 21.3768 12.2916ZM25.5905 10.6349C25.5002 10.281 25.3632 9.75142 25.4083 9.24338C25.4543 8.51406 25.8417 8.09389 26.2965 7.93972C26.8662 7.76318 27.4811 8.04996 27.8234 8.47013C28.0278 8.71297 28.2101 9.06604 28.3693 9.41992C28.4153 9.53015 28.4834 9.66275 28.5286 9.79536C28.6657 10.1932 28.7338 10.5902 28.7108 10.9664C28.6887 11.1869 28.6657 11.4082 28.5746 11.5847C28.5064 11.7836 28.3693 12.048 28.1419 12.1814C27.9827 12.2693 27.8004 12.2916 27.6633 12.3356C27.5207 12.3625 27.376 12.3775 27.2307 12.3803C27.1396 12.3803 27.0485 12.3803 26.9574 12.3579H26.8892C26.5018 12.2477 26.2735 11.9601 26.0691 11.7173C25.9211 11.5034 25.7988 11.2737 25.7047 11.0327C25.7047 11.0327 25.6817 10.988 25.6595 10.9001C25.6337 10.8519 25.6181 10.7993 25.6135 10.7451C25.6135 10.6788 25.6135 10.6573 25.5905 10.6349ZM25.7958 9.66275C25.7958 9.97189 25.8417 10.3258 25.9329 10.6349C26.0232 10.944 26.1603 11.2532 26.3425 11.5184C26.5018 11.7397 26.707 11.9601 27.0033 12.0488H27.0485C27.1166 12.0704 27.1848 12.0704 27.2537 12.0704C27.367 12.0704 27.4811 12.0488 27.6182 12.0264C27.7545 12.0041 27.8916 11.9601 28.0278 11.8938C28.1871 11.806 28.2552 11.6286 28.3234 11.4745C28.3923 11.2971 28.4153 11.1206 28.4383 10.944C28.4602 10.6214 28.4135 10.2978 28.3012 9.99346V10.0382C28.4834 10.8554 28.2331 11.5847 27.7315 11.6949C27.2307 11.8052 26.684 11.2316 26.5018 10.436C26.4578 10.2327 26.435 10.0255 26.4336 9.81772C26.5239 9.94953 26.684 10.0382 26.8441 9.99346C27.0485 9.94953 27.1626 9.68512 27.0945 9.44228C27.0255 9.22101 26.8433 9.06684 26.661 9.06684C26.7521 8.93344 26.8892 8.8232 27.0485 8.80084C27.367 8.73454 27.7093 8.93344 27.9597 9.33125L27.7545 8.99974C27.5722 8.7569 27.2989 8.51406 26.9804 8.44776C26.9344 8.44776 26.8662 8.4254 26.8211 8.4254C26.5247 8.4254 26.2284 8.558 26.0691 8.77927C25.8417 9.02211 25.7958 9.35361 25.7958 9.66275Z" fill="black"/>
<path d="M93.439 15.8045L89.9313 25.0163H94.5317L98.0394 15.8045H93.439ZM165.249 15.8045L162.858 22.123C162.881 21.4816 163.017 18.9637 163.108 17.5275C163.131 16.9308 163.018 16.4675 162.722 16.1799C162.357 15.8045 161.901 15.8045 161.879 15.8045H156.526L153.019 25.0163H156.891L159.373 18.4773L159.078 25.0163H165.591L169.099 15.8045H165.249ZM84.3285 15.8045L80.9579 20.7531C80.9579 20.7531 81.1631 18.1681 81.2312 17.5275C81.2764 17.0642 81.2083 15.7821 80.0245 15.7821H74.6935L71.1882 24.994H75.356L77.8844 18.3231L77.3598 24.994H81.0728L85.6272 18.4333L83.1448 24.994H87.3355L90.8433 15.7821H84.3294L84.3285 15.8045ZM119.494 15.8045L118.218 19.1179H115.895L117.148 15.8045H112.752L109.29 25.0163H113.663L114.848 21.901H117.171L115.986 25.0163H120.359L123.867 15.8045H119.494ZM104.416 15.8708C101.638 16.4227 97.8572 18.411 97.8802 22.0344C97.9024 24.1328 100.499 25.2815 103.505 25.2152C105.19 25.1713 106.785 24.8837 106.968 24.8398L108.083 22.0559C106.625 22.2772 105.213 22.6311 104.098 22.1885C102.116 21.4153 103.323 19.4055 104.736 18.7864C105.35 18.522 106.193 18.2568 107.218 18.2784C107.629 18.2784 108.675 18.3007 109.063 19.1842L110.452 15.9371C108.06 15.3619 105.669 15.6279 104.416 15.8708ZM129.902 18.2121H135.164L136.097 15.8045H126.509L123.001 25.0163H132.704L133.638 22.5201H128.285L128.673 21.504H133.683L134.548 19.229H129.538L129.902 18.2121ZM149.307 15.8045L145.799 25.0163H150.4L153.908 15.8045H149.307ZM143.044 15.8045H138.556L135.049 25.0163H144.046L145.207 21.9457H140.697L143.044 15.8045ZM163.541 30.3843H1.69951L0.811279 32.7041H162.676L163.541 30.3843Z" fill="black"/>
</g>
<defs>
<clipPath id="clip0_204_3253">
<rect width="168.287" height="31.9524" fill="white" transform="translate(0.811279 0.750977)"/>
</clipPath>
</defs>
</svg>
