<svg width="156" height="56" viewBox="0 0 156 56" fill="none" xmlns="http://www.w3.org/2000/svg">
<g clip-path="url(#clip0_204_3194)">
<path d="M0.562195 0.984863V28.2768H28.3467V0.984863H0.562195ZM19.8144 19.8958H9.09444V9.43748H19.7415V19.8958H19.8144Z" fill="black"/>
<path d="M47.526 9.4375H36.879V19.8958H47.526V9.4375Z" fill="black"/>
<path d="M56.1312 0.984863H71.5913C77.2795 0.984863 79.8319 4.70974 79.8319 8.07646C79.8319 10.512 78.8838 12.0879 76.3314 13.5922C79.5402 14.7383 81.3633 16.8872 81.3633 20.1823C81.3633 24.1221 78.4463 28.2768 71.6642 28.2768H56.1312V0.984863ZM64.5905 22.1164H70.2057C71.6642 22.2597 72.9769 21.1852 73.1227 19.7525C73.1227 19.6809 73.1227 19.6093 73.1227 19.5376C73.0498 18.2483 71.9559 17.1738 70.6433 17.2454C70.5704 17.2454 70.5704 17.2454 70.4974 17.2454H64.5905V22.1164ZM64.5905 11.7297H69.1119C71.1538 11.7297 71.9559 10.7985 71.9559 9.43748C72.0289 8.29136 71.0808 7.36014 69.987 7.36014C69.914 7.36014 69.7682 7.36014 69.6953 7.36014H64.6634L64.5905 11.7297Z" fill="black"/>
<path d="M90.1143 0.984863H99.0841L109.294 28.2051H100.105L98.7195 24.1221H90.1143L88.9475 28.2051H79.9048L90.1143 0.984863ZM94.271 9.07932L91.9374 18.1766H96.9693L94.271 9.07932Z" fill="black"/>
<path d="M123.514 9.15082H132.046C132.046 4.49472 128.546 0.196777 120.087 0.196777C110.898 0.196777 107.981 5.21104 107.981 8.86429C107.981 14.7381 115.346 16.3141 115.565 16.3857C116.659 16.7438 121.253 17.89 122.347 18.3198C123.368 18.6779 124.243 19.4659 124.243 20.4687C124.243 22.0446 122.347 22.8326 120.67 22.8326C119.649 22.8326 116.149 22.4744 116.149 18.8928H107.325C107.325 23.6922 110.679 29.0646 120.087 29.0646C130.515 29.0646 132.63 22.9759 132.63 19.7524C132.557 16.6006 130.588 13.8069 127.598 12.8041C125.483 11.9445 121.983 11.2282 120.232 10.7267C119.357 10.4402 116.367 9.86714 116.367 8.07633C116.367 5.7841 120.16 6.07063 119.649 6.07063C121.545 6.07063 123.514 7.00185 123.514 9.15082Z" fill="black"/>
<path d="M134.307 0.984863H155.601V8.21973H142.839V13.0191H154.216V19.8958H142.766V28.2768H134.234L134.307 0.984863Z" fill="black"/>
<path d="M11.6468 49.838L8.94859 40.0244H7.27131L4.57308 49.838H4.50016L2.09362 40.0244H0.562195L3.62505 51.7721H5.22941L8.07349 41.8152H8.14641V41.8869L10.9176 51.7721H12.5219L15.7306 40.0244H14.1992L11.7197 49.838H11.6468Z" fill="black"/>
<path d="M22.8044 44.7524C22.5127 44.251 22.0751 43.8928 21.5646 43.5346C20.9812 43.1765 20.3249 43.0332 19.6686 43.0332C19.0852 43.0332 18.5747 43.1765 18.0642 43.3914C17.5538 43.6063 17.1162 43.9644 16.7516 44.3226C16.387 44.7524 16.0953 45.2538 15.8765 45.7552C15.6577 46.3283 15.5848 46.9013 15.5848 47.546C15.5848 48.1907 15.7306 48.7638 15.8765 49.3368C16.0223 49.8383 16.314 50.3397 16.6787 50.7695C17.0433 51.1277 17.4808 51.4142 17.9184 51.6291C18.5018 51.844 19.0852 51.9872 19.7415 51.9872C20.6166 51.9872 21.4917 51.7723 22.221 51.2709C22.8773 50.7695 23.3148 49.9815 23.4607 49.1936H22.148C22.0751 49.695 21.7834 50.1248 21.3459 50.483C20.9083 50.7695 20.3978 50.9128 19.8144 50.9128C19.3769 50.9128 18.9393 50.8411 18.5747 50.6979C18.2101 50.5546 17.9184 50.3397 17.6996 50.0532C17.4808 49.7666 17.335 49.4801 17.1891 49.122C17.1162 48.7638 17.0433 48.4056 17.0433 47.9758H23.6065C23.6065 47.4744 23.6065 46.9013 23.4607 46.3999C23.3148 45.7552 23.0961 45.2538 22.8044 44.7524ZM17.0433 46.7581C17.0433 46.3999 17.1162 46.0418 17.2621 45.7552C17.4079 45.4687 17.5538 45.1822 17.7725 44.9673C17.9913 44.7524 18.283 44.5375 18.5747 44.4658C18.8664 44.3226 19.231 44.251 19.5957 44.251C19.9603 44.251 20.252 44.3226 20.6166 44.4658C20.9083 44.6091 21.2 44.7524 21.4188 44.9673C21.6376 45.1822 21.8563 45.4687 21.9293 45.7552C22.0751 46.0418 22.148 46.3999 22.148 46.7581H17.0433Z" fill="black"/>
<path d="M33.6702 50.7698C33.2327 50.7698 32.8681 50.6982 32.5034 50.4833C32.2117 50.34 31.92 50.0535 31.7013 49.767C31.4825 49.4805 31.3366 49.1223 31.2637 48.7641C31.1908 48.406 31.1179 47.9762 31.1179 47.618C31.1179 47.1882 31.1908 46.7584 31.2637 46.3286C31.3366 45.9705 31.4825 45.5407 31.7013 45.2541C31.92 44.9676 32.2117 44.6811 32.5764 44.5378C33.0139 44.3229 33.4515 44.2513 33.889 44.2513C34.3995 44.2513 34.91 44.3946 35.3475 44.6811C35.7122 45.0392 36.0039 45.469 36.0768 45.8988H37.4624C37.3894 45.469 37.3165 45.0393 37.0977 44.6095C36.879 44.2513 36.5873 43.9648 36.2956 43.6782C35.9309 43.4633 35.5663 43.2484 35.2017 43.1052C34.7641 42.9619 34.2536 42.9619 33.8161 42.9619C33.2327 42.9619 32.5764 43.1052 31.993 43.3201C31.4825 43.535 31.0449 43.8931 30.6803 44.2513C30.3157 44.6811 30.0969 45.1825 29.9511 45.6839C29.8052 46.257 29.6594 46.9017 29.7323 47.4748C29.7323 48.0478 29.8052 48.6209 29.9511 49.1939C30.0969 49.6954 30.3886 50.1968 30.6803 50.6266C31.0449 50.9847 31.4825 51.3429 31.92 51.4862C32.5034 51.7011 33.0868 51.8443 33.6702 51.7727C34.6183 51.8443 35.5663 51.4862 36.2956 50.9131C36.9519 50.2684 37.3894 49.4088 37.4624 48.5492H36.0768C36.0039 49.1223 35.7851 49.6954 35.3475 50.0535C34.91 50.6982 34.3266 50.9131 33.6702 50.7698Z" fill="black"/>
<path d="M41.9108 43.5346C41.3274 43.8928 40.8898 44.4658 40.5981 45.0389H40.5252V43.2481H39.2125V51.7723H40.5252V47.9758C40.5252 47.4744 40.5981 46.973 40.744 46.4716C40.8169 46.1134 41.0357 45.6836 41.2544 45.3971C41.5461 45.1105 41.8378 44.824 42.2754 44.6807C42.7129 44.5375 43.2234 44.4658 43.7339 44.4658V43.0332H43.661C43.0046 43.0332 42.4212 43.1765 41.9108 43.5346Z" fill="black"/>
<path d="M51.0994 44.7524C50.8077 44.251 50.3701 43.8928 49.8596 43.5346C49.2762 43.1765 48.6199 43.0332 47.9636 43.0332C47.3802 43.0332 46.8697 43.1765 46.3592 43.3914C45.8487 43.6063 45.4112 43.9644 45.0466 44.3226C44.6819 44.7524 44.3902 45.2538 44.1715 45.7552C43.9527 46.3283 43.8798 46.9013 43.8798 47.546C43.8798 48.1907 44.0256 48.7638 44.1715 49.3368C44.3173 49.8383 44.609 50.3397 44.9736 50.7695C45.3383 51.1993 45.7758 51.4858 46.2863 51.7007C46.8697 51.9156 47.4531 52.0589 48.1094 52.0589C48.9845 52.0589 49.8596 51.844 50.516 51.3426C51.1723 50.8411 51.6098 50.0532 51.7557 49.2652H50.443C50.3701 49.7666 50.0784 50.1964 49.6409 50.5546C49.2033 50.8411 48.6928 50.9844 48.1094 50.9844C47.6719 50.9844 47.2343 50.9128 46.8697 50.7695C46.5051 50.6262 46.2134 50.4113 45.9946 50.1248C45.7758 49.8383 45.63 49.5517 45.4841 49.1936C45.3383 48.8354 45.3383 48.4056 45.3383 47.9758H51.9015C51.9015 47.4744 51.9015 46.9013 51.7557 46.3999C51.6098 45.7552 51.3911 45.2538 51.0994 44.7524ZM45.3383 46.7581C45.3383 46.3999 45.4112 46.0418 45.557 45.7552C45.7029 45.4687 45.8487 45.1822 46.0675 44.9673C46.2863 44.7524 46.578 44.5375 46.8697 44.4658C47.1614 44.3226 47.526 44.251 47.8906 44.251C48.2553 44.251 48.547 44.3226 48.9116 44.4658C49.495 44.6807 50.0055 45.1822 50.2243 45.7552C50.3701 46.0418 50.443 46.3999 50.443 46.7581H45.3383Z" fill="black"/>
<path d="M60.5796 50.5545C60.5067 50.3396 60.5067 50.0531 60.5067 49.8382V45.397C60.5067 44.9672 60.4338 44.5374 60.215 44.1792C60.0691 43.8927 59.7774 43.6062 59.4857 43.4629C59.194 43.3196 58.8294 43.1764 58.4648 43.1047C57.5897 42.9615 56.7875 42.9615 55.9124 43.1764C55.4749 43.248 55.1102 43.4629 54.7456 43.6778C54.381 43.8927 54.1622 44.1792 53.9434 44.5374C53.7246 44.9672 53.6517 45.397 53.5788 45.8268H54.8914C54.8914 45.3253 55.1102 44.8239 55.5478 44.5374C56.0583 44.3225 56.5687 44.1792 57.0792 44.1792C57.298 44.1792 57.5168 44.1792 57.7355 44.2508C57.9543 44.2508 58.1731 44.3225 58.3919 44.4657C58.6106 44.5374 58.7565 44.7523 58.9023 44.8955C59.0482 45.1104 59.1211 45.397 59.1211 45.6835C59.1211 45.8984 59.0482 46.1849 58.9023 46.3282C58.6836 46.4715 58.4648 46.6147 58.246 46.6863C57.9543 46.758 57.5897 46.8296 57.298 46.8296C56.9334 46.8296 56.5687 46.9012 56.2041 46.9729C55.8395 47.0445 55.4749 47.1161 55.1102 47.1878C54.7456 47.2594 54.4539 47.4027 54.1622 47.6176C53.8705 47.8325 53.6517 48.0474 53.5059 48.3339C53.36 48.692 53.2142 49.1218 53.2871 49.48C53.2871 49.8382 53.36 50.1963 53.5059 50.5545C53.6517 50.841 53.8705 51.0559 54.0893 51.2708C54.381 51.4857 54.6727 51.629 54.9644 51.7006C55.329 51.7722 55.6936 51.8439 56.0583 51.8439C56.6417 51.8439 57.2251 51.7722 57.7355 51.5573C58.246 51.3424 58.7565 50.9843 59.1211 50.5545L59.194 50.4829V50.6261C59.1211 50.9843 59.267 51.3425 59.4857 51.629C59.7045 51.8439 59.9962 51.9155 60.3608 51.9155C60.7255 51.9155 61.0172 51.8439 61.3818 51.7006V50.6978C61.2359 50.7694 61.0901 50.7694 61.0172 50.7694C60.7984 50.7694 60.6525 50.6978 60.5796 50.5545ZM59.194 48.7637C59.194 48.9786 59.1211 49.1935 59.0482 49.4084C58.9023 49.6233 58.7565 49.9098 58.5377 50.0531C58.3189 50.268 58.0272 50.4112 57.6626 50.5545C57.298 50.6978 56.8604 50.7694 56.4229 50.7694C56.2041 50.7694 55.9853 50.7694 55.7665 50.6978C55.5478 50.6261 55.4019 50.5545 55.1832 50.4829C55.0373 50.4112 54.8915 50.268 54.8185 50.0531C54.7456 49.8382 54.6727 49.6233 54.6727 49.48C54.6727 49.1935 54.7456 48.9069 54.8914 48.692C55.0373 48.4772 55.2561 48.3339 55.5478 48.1906C55.8395 48.0474 56.1312 47.9757 56.4229 47.9757C56.7146 47.9041 57.0792 47.9041 57.3709 47.8325C57.6626 47.8325 57.9543 47.7608 58.3189 47.6892C58.6106 47.6176 58.8294 47.5459 59.0482 47.4027L59.1211 47.331L59.194 48.7637Z" fill="black"/>
<path d="M74.6542 44.7524C74.3625 44.251 73.9249 43.8928 73.4144 43.5346C72.831 43.1765 72.1747 43.0332 71.5184 43.0332C70.935 43.0332 70.4245 43.1765 69.914 43.3914C69.4036 43.6063 68.966 43.9644 68.6014 44.3226C68.2368 44.7524 67.945 45.2538 67.7263 45.7552C67.5075 46.3283 67.4346 46.9013 67.4346 47.546C67.4346 48.1907 67.5804 48.7638 67.7263 49.3368C67.8721 49.8383 68.1638 50.3397 68.5284 50.7695C68.8931 51.1993 69.3306 51.4858 69.8411 51.7007C70.4245 51.9156 71.0079 52.0589 71.6642 52.0589C72.5393 52.0589 73.4144 51.844 74.0708 51.3426C74.7271 50.8411 75.1646 50.0532 75.3105 49.2652H73.9978C73.9249 49.7666 73.6332 50.1964 73.1957 50.5546C72.7581 50.8411 72.2476 50.9844 71.6642 50.9844C71.2267 50.9844 70.7891 50.8411 70.4245 50.6262C70.0599 50.483 69.7682 50.2681 69.5494 49.9815C69.3306 49.695 69.1848 49.4085 69.0389 49.0503C68.8931 48.6922 68.8931 48.334 68.8931 47.9758H75.4563C75.4563 47.4744 75.4563 46.9013 75.3105 46.3999C75.2376 45.7552 75.0188 45.2538 74.6542 44.7524ZM68.966 46.7581C68.966 46.3999 69.0389 46.0418 69.1848 45.7552C69.3306 45.4687 69.4765 45.1822 69.6953 44.9673C69.914 44.7524 70.1328 44.5375 70.4974 44.3942C70.7891 44.251 71.1538 44.1793 71.5184 44.1793C71.883 44.1793 72.1747 44.251 72.5393 44.3942C72.831 44.5375 73.1227 44.6807 73.3415 44.8956C73.5603 45.1105 73.7791 45.3971 73.852 45.6836C73.9978 45.9701 74.0708 46.3283 74.0708 46.6865V46.7581H68.966Z" fill="black"/>
<path d="M85.593 50.7698C85.1554 50.7698 84.7908 50.6982 84.4262 50.4833C84.1345 50.34 83.8428 50.0535 83.624 49.767C83.4052 49.4805 83.2594 49.1223 83.1864 48.7641C83.1135 48.406 83.0406 47.9762 83.0406 47.618C83.0406 47.1882 83.1135 46.7584 83.1864 46.3286C83.2594 45.9705 83.4052 45.6123 83.624 45.2541C83.8428 44.9676 84.1345 44.6811 84.4991 44.4662C84.9366 44.2513 85.3742 44.1797 85.8117 44.1797C86.3222 44.1797 86.8327 44.3229 87.2702 44.6095C87.6349 44.9676 87.9266 45.3974 87.9995 45.8988H89.3851C89.3122 45.469 89.1663 45.0393 88.9475 44.6095C88.7287 44.2513 88.51 43.9648 88.1453 43.6782C87.7807 43.4633 87.4161 43.2484 86.9785 43.1052C86.541 42.9619 86.0305 42.9619 85.593 42.9619C85.0096 42.9619 84.3532 43.1052 83.7698 43.3201C83.2594 43.535 82.8218 43.8931 82.4572 44.2513C82.0926 44.6811 81.8738 45.1825 81.7279 45.6839C81.5821 46.257 81.5092 46.9017 81.5092 47.4748C81.5092 48.0478 81.5821 48.6925 81.7279 49.1939C81.8738 49.6954 82.0926 50.1251 82.4572 50.5549C82.8218 50.9131 83.2594 51.2713 83.6969 51.4145C84.2803 51.6294 84.8637 51.7727 85.4471 51.7011C86.3951 51.7727 87.3432 51.4145 88.0724 50.8415C88.7287 50.1968 89.1663 49.4088 89.3121 48.4776H88.0724C87.9995 49.0507 87.7807 49.6237 87.3432 49.9819C86.8327 50.6266 86.2493 50.8415 85.593 50.7698Z" fill="black"/>
<path d="M97.6985 43.9645C97.4798 43.678 97.1151 43.4631 96.8234 43.3198C96.3859 43.1766 95.8754 43.1049 95.3649 43.1049C95.0732 43.1049 94.8544 43.1049 94.5627 43.1766C94.271 43.2482 94.0523 43.3198 93.7606 43.3915C93.5418 43.5347 93.323 43.678 93.1042 43.8213C92.8855 43.9645 92.7396 44.2511 92.5938 44.466H92.5208V39.9531H91.2082V51.7725H92.5208V46.9731C92.5208 46.6149 92.5938 46.2568 92.6667 45.8986C92.7396 45.6121 92.9584 45.2539 93.1772 45.039C93.3959 44.8241 93.6876 44.6092 93.9794 44.466C94.344 44.3227 94.7086 44.2511 95.1461 44.2511C95.6566 44.2511 96.0942 44.3943 96.4588 44.7525C96.8234 45.1107 96.9693 45.5404 96.9693 46.0419V51.7725H98.3549V46.1851C98.3549 45.7553 98.2819 45.3256 98.209 44.8958C98.0632 44.5376 97.9173 44.2511 97.6985 43.9645Z" fill="black"/>
<path d="M107.325 44.7524C107.033 44.251 106.595 43.8928 106.085 43.5346C105.502 43.1765 104.845 43.0332 104.189 43.0332C103.606 43.0332 103.095 43.1765 102.585 43.3914C102.074 43.6063 101.637 43.9644 101.272 44.3226C100.907 44.7524 100.616 45.2538 100.397 45.7552C100.178 46.3283 100.105 46.9013 100.105 47.546C100.105 48.1907 100.251 48.7638 100.397 49.3368C100.543 49.8383 100.834 50.3397 101.199 50.7695C101.564 51.1993 102.001 51.4858 102.512 51.7007C103.095 51.9156 103.678 52.0589 104.335 52.0589C105.21 52.0589 106.085 51.844 106.814 51.3426C107.471 50.8411 107.908 50.0532 108.054 49.2652H106.741C106.668 49.7666 106.377 50.1964 105.939 50.5546C105.502 50.8411 104.991 50.9844 104.408 50.9844C103.97 50.9844 103.533 50.9128 103.168 50.7695C102.803 50.6262 102.512 50.4113 102.293 50.1248C102.074 49.8383 101.928 49.5517 101.782 49.1936C101.709 48.8354 101.637 48.4773 101.637 48.1191V47.9758H108.2C108.2 47.4744 108.2 46.9013 108.054 46.3999C107.835 45.7552 107.689 45.2538 107.325 44.7524ZM101.564 46.7581C101.564 46.3999 101.637 46.0418 101.782 45.7552C101.928 45.4687 102.074 45.1822 102.293 44.9673C102.803 44.4659 103.46 44.251 104.116 44.251C104.481 44.251 104.772 44.3226 105.137 44.4658C105.72 44.6807 106.231 45.1822 106.45 45.7552C106.595 46.0418 106.668 46.3999 106.668 46.6865V46.7581H101.564Z" fill="black"/>
<path d="M121.18 43.6054C120.889 43.3905 120.597 43.2473 120.305 43.1757C119.941 43.104 119.503 43.0324 119.139 43.0324C118.628 43.0324 118.045 43.1757 117.607 43.3905C117.17 43.6054 116.732 44.0352 116.44 44.465L116.367 44.5367V44.465C116.222 43.9636 115.93 43.6054 115.492 43.3905C115.055 43.1757 114.544 43.0324 114.034 43.0324C112.867 42.9608 111.846 43.5338 111.19 44.465H111.117V43.2473H109.804V51.7715H111.117V46.4707C111.117 46.2558 111.19 46.0409 111.263 45.826C111.481 45.253 111.846 44.7516 112.429 44.465C112.794 44.2501 113.159 44.1785 113.523 44.1785C113.815 44.1785 114.107 44.2501 114.325 44.3218C114.544 44.3934 114.69 44.5367 114.836 44.7516C114.982 44.9665 115.055 45.1814 115.128 45.3963C115.201 45.6828 115.201 45.8977 115.201 46.1842V51.7715H116.513V46.4707C116.513 45.8977 116.732 45.253 117.17 44.8232C117.607 44.3934 118.263 44.1785 118.847 44.1785C119.139 44.1785 119.43 44.2501 119.722 44.3218C119.941 44.3934 120.087 44.5367 120.232 44.7516C120.378 44.9665 120.451 45.1814 120.524 45.3963C120.597 45.6111 120.597 45.8977 120.597 46.1126V51.7715H121.983V45.5395C121.983 45.1814 121.91 44.7516 121.764 44.3934C121.618 44.1069 121.472 43.892 121.18 43.6054Z" fill="black"/>
<path d="M125.702 41.672H124.389V40.0244H125.702V41.672ZM125.702 43.2479H124.389V51.7721H125.702V43.2479Z" fill="black"/>
<path d="M133.724 51.4142C134.088 51.1993 134.38 50.9128 134.599 50.6262C134.818 50.2681 134.963 49.8383 134.89 49.3368C134.89 48.9787 134.817 48.6205 134.672 48.334C134.526 48.0475 134.307 47.8326 134.015 47.6893C133.724 47.546 133.432 47.4028 133.14 47.2595C132.776 47.1162 132.411 47.0446 132.119 46.973L131.098 46.7581C130.807 46.6865 130.442 46.6148 130.15 46.4716C129.932 46.3999 129.64 46.2567 129.494 46.0418C129.129 45.6836 129.129 45.1822 129.421 44.824C129.567 44.6807 129.713 44.5375 129.859 44.4658C130.077 44.3942 130.223 44.3226 130.442 44.3226C130.88 44.251 131.39 44.251 131.828 44.3226C132.046 44.3942 132.265 44.4659 132.484 44.5375C132.703 44.6807 132.849 44.824 132.994 44.9673C133.14 45.1822 133.213 45.3971 133.213 45.612H134.599C134.599 45.1822 134.453 44.7524 134.307 44.3942C134.161 44.0361 133.869 43.8212 133.578 43.6063C133.213 43.3914 132.849 43.2481 132.484 43.1765C132.046 43.1048 131.609 43.0332 131.098 43.0332C130.734 43.0332 130.296 43.1048 129.932 43.1765C129.567 43.2481 129.202 43.3914 128.838 43.6063C128.546 43.8212 128.327 44.0361 128.108 44.3226C127.89 44.6807 127.817 45.0389 127.817 45.3971C127.817 45.8269 127.963 46.3283 128.254 46.6865C128.546 46.973 128.911 47.2595 129.275 47.4028C129.713 47.546 130.15 47.6893 130.661 47.8326C131.098 47.9042 131.609 48.0475 132.046 48.1191C132.411 48.1907 132.776 48.334 133.14 48.5489C133.432 48.7638 133.578 49.0503 133.578 49.4085C133.578 49.695 133.505 49.9099 133.359 50.1248C133.213 50.3397 133.067 50.4113 132.849 50.5546C132.63 50.6262 132.338 50.6979 132.119 50.7695C131.609 50.8411 131.025 50.8411 130.515 50.7695C130.223 50.6979 130.004 50.6262 129.786 50.483C129.567 50.3397 129.348 50.1964 129.202 49.9815C129.056 49.7666 128.983 49.4801 128.983 49.1936H127.671C127.671 49.6234 127.817 50.0532 127.963 50.483C128.181 50.8411 128.4 51.1277 128.765 51.3426C129.129 51.5575 129.494 51.7723 129.932 51.844C130.807 52.0589 131.755 52.0589 132.63 51.844C132.994 51.7723 133.359 51.6291 133.724 51.4142Z" fill="black"/>
<path d="M138.537 40.7402H137.224V43.319H135.766V44.4651H137.224V49.9808C137.224 50.2673 137.224 50.6255 137.37 50.912C137.443 51.1269 137.516 51.3418 137.734 51.4851C137.88 51.6283 138.099 51.7 138.391 51.7716C138.683 51.8432 139.047 51.8432 139.339 51.8432H140.36V50.6971H139.776C139.558 50.6971 139.339 50.6971 139.193 50.6971C139.047 50.6971 138.974 50.6255 138.828 50.5539C138.755 50.4822 138.683 50.4106 138.683 50.2673C138.683 50.1241 138.61 49.9808 138.61 49.8375V44.4651H140.433V43.319H138.61L138.537 40.7402Z" fill="black"/>
<path d="M64.7364 40.7402H63.4237V43.319H61.9652V44.4651H63.4237V49.9808C63.4237 50.2673 63.4237 50.6255 63.5696 50.912C63.6425 51.1269 63.7883 51.3418 63.9342 51.4851C64.08 51.6283 64.2988 51.7 64.5176 51.7716C64.8093 51.7716 65.101 51.7716 65.4656 51.7716H66.4866V50.6255H65.9032C65.6844 50.6255 65.4656 50.6255 65.3198 50.6255C65.1739 50.6255 65.101 50.5539 64.9551 50.4822C64.8822 50.4106 64.8093 50.339 64.8093 50.1957C64.8093 50.0524 64.7364 49.9092 64.7364 49.7659V44.3935H66.5595V43.2474H64.7364V40.7402Z" fill="black"/>
<path d="M143.641 45.1817L143.568 43.3193H142.329V51.7719H143.714V48.1186C143.714 47.6172 143.787 47.1158 143.86 46.6143C143.933 46.1846 144.152 45.8264 144.444 45.5399C144.735 45.2533 145.027 44.9668 145.465 44.8235C145.902 44.6803 146.413 44.6086 146.923 44.6086V43.176C146.267 43.1044 145.61 43.3193 145.1 43.6058C144.444 43.9639 144.006 44.537 143.641 45.1817Z" fill="black"/>
<path d="M151.299 53.9929C151.517 53.6347 151.663 53.2766 151.809 52.9184L155.601 43.248H154.143L151.663 50.268H151.59L149.038 43.248H147.506L150.934 51.7007L150.351 53.1333C150.205 53.3482 150.059 53.5631 149.84 53.7064C149.621 53.8496 149.403 53.9213 149.111 53.9213C148.965 53.9213 148.819 53.9213 148.673 53.8496L148.309 53.7064V54.9241C148.455 54.9958 148.6 54.9958 148.746 54.9958C148.892 54.9958 149.111 54.9958 149.257 54.9958C149.548 54.9958 149.84 54.9241 150.059 54.8525C150.278 54.7809 150.496 54.6376 150.715 54.4943C151.007 54.4943 151.153 54.2078 151.299 53.9929Z" fill="black"/>
</g>
<defs>
<clipPath id="clip0_204_3194">
<rect width="155.039" height="55.0136" fill="white" transform="translate(0.562195 0.196777)"/>
</clipPath>
</defs>
</svg>
