<svg width="146" height="37" viewBox="0 0 146 37" fill="none" xmlns="http://www.w3.org/2000/svg">
<g clip-path="url(#clip0_204_3245)">
<path d="M48.0846 0.580078C42.6915 0.580078 39.1049 3.43845 38.6074 7.75248C38.5027 8.75821 38.3718 9.73747 38.2409 10.7432H108.429C108.429 10.7432 108.56 9.68454 108.665 8.86408C109.188 4.52358 107.382 0.606545 100.758 0.606545C100.758 0.606545 50.912 0.606545 48.0846 0.580078ZM5.22812 0.606545L3.99766 10.7432H35.8324L37.0628 0.606545H5.22812ZM112.094 0.606545L110.864 10.7432H145.369C145.369 10.7432 145.421 10.3727 145.552 9.18167C146.39 2.51213 142.149 0.606545 138.039 0.606545H112.094ZM110.393 14.6073L107.696 36.7597H119.608L122.304 14.6338L110.393 14.6073ZM133.012 14.6073L130.316 36.7597H142.227L144.924 14.6073H133.012ZM3.52643 14.6073L0.856079 36.7332H32.6908L33.8689 27.1259H13.946L14.4172 22.9972H34.3401L35.3611 14.6073H3.52643ZM37.7697 14.6073C36.9058 20.377 39.7594 22.9972 43.8172 22.9972C46.0163 22.9972 59.9179 22.9972 59.9179 22.9972L59.4204 27.1524H36.2513L35.0732 36.7597C35.0732 36.7597 60.2844 36.7597 61.3054 36.7597C62.1431 36.7068 68.0598 36.548 70.0495 31.6517C70.704 30.0637 71.2799 24.3999 71.437 23.2089C72.3533 16.2747 67.6147 14.6338 63.8972 14.6338C61.8552 14.6073 41.8276 14.6073 37.7697 14.6073ZM74.8404 14.6073L72.1438 36.7332H84.0557L85.7312 22.9972H100.68C104.921 22.9972 107.199 20.6946 107.618 17.598C107.748 16.5923 107.879 15.613 107.984 14.6073H74.8404Z" fill="black"/>
</g>
<defs>
<clipPath id="clip0_204_3245">
<rect width="145.036" height="36.259" fill="white" transform="translate(0.672791 0.500977)"/>
</clipPath>
</defs>
</svg>
