<svg width="93" height="49" viewBox="0 0 93 49" fill="none" xmlns="http://www.w3.org/2000/svg">
<path d="M73.1928 1.07141L66.5928 27.9904L59.974 1.07141H40.8572V11.0117C38.5343 2.31308 30.0126 0.131401 22.398 0.00746918C13.1136 -0.114124 2.82637 3.91952 2.46955 16.2286H15.3105C15.3105 12.5129 18.7038 10.385 21.9082 10.4388C25.8426 10.4061 27.6524 12.0897 27.7434 14.711C27.6081 16.9862 26.2694 18.5693 21.9409 18.5693H17.6217V27.5017H21.5421C23.7693 27.5017 26.8688 28.7177 26.9901 31.8978C27.1393 35.6883 24.511 37.3532 21.2762 37.3859C15.5018 37.1708 14.0115 32.7233 14.0115 28.8977H0.683105C0.739078 31.4746 0.655119 48.2709 21.5444 48.147C31.5518 48.2382 38.8352 44.0198 40.8898 38.2043V47.1181H53.7448V18.0759L60.8533 47.1181H72.3392L79.4734 18.1086V47.1438H92.5895V1.07141H73.1928ZM40.8992 27.9273C39.262 24.532 36.9578 23.0472 35.6611 22.5772C38.3827 21.3636 39.8077 19.7174 40.8992 16.4367V27.9273Z" fill="black"/>
</svg>
