<svg width="24" height="25" viewBox="0 0 24 25" fill="none" xmlns="http://www.w3.org/2000/svg">
<path d="M17.5 6.63672H17.51M7 2.13672H17C19.7614 2.13672 22 4.37529 22 7.13672V17.1367C22 19.8981 19.7614 22.1367 17 22.1367H7C4.23858 22.1367 2 19.8981 2 17.1367V7.13672C2 4.37529 4.23858 2.13672 7 2.13672ZM16 11.5067C16.1234 12.339 15.9813 13.1889 15.5938 13.9357C15.2063 14.6825 14.5931 15.2881 13.8416 15.6664C13.0901 16.0447 12.2384 16.1763 11.4078 16.0427C10.5771 15.909 9.80976 15.5168 9.21484 14.9219C8.61992 14.327 8.22773 13.5596 8.09407 12.7289C7.9604 11.8983 8.09207 11.0466 8.47033 10.2951C8.84859 9.54357 9.45419 8.93046 10.201 8.54296C10.9478 8.15546 11.7978 8.01331 12.63 8.13672C13.4789 8.2626 14.2649 8.65818 14.8717 9.26503C15.4785 9.87187 15.8741 10.6578 16 11.5067Z" stroke="#0A7479" stroke-linecap="round" stroke-linejoin="round"/>
</svg>
