<svg width="24" height="25" viewBox="0 0 24 25" fill="none" xmlns="http://www.w3.org/2000/svg">
<path d="M16 8.13672C17.5913 8.13672 19.1174 8.76886 20.2426 9.89408C21.3679 11.0193 22 12.5454 22 14.1367V21.1367H18V14.1367C18 13.6063 17.7893 13.0976 17.4142 12.7225C17.0391 12.3474 16.5304 12.1367 16 12.1367C15.4696 12.1367 14.9609 12.3474 14.5858 12.7225C14.2107 13.0976 14 13.6063 14 14.1367V21.1367H10V14.1367C10 12.5454 10.6321 11.0193 11.7574 9.89408C12.8826 8.76886 14.4087 8.13672 16 8.13672Z" stroke="#0A7479" stroke-linecap="round" stroke-linejoin="round"/>
<path d="M6 9.13672H2V21.1367H6V9.13672Z" stroke="#0A7479" stroke-linecap="round" stroke-linejoin="round"/>
<path d="M4 6.13672C5.10457 6.13672 6 5.24129 6 4.13672C6 3.03215 5.10457 2.13672 4 2.13672C2.89543 2.13672 2 3.03215 2 4.13672C2 5.24129 2.89543 6.13672 4 6.13672Z" stroke="#0A7479" stroke-linecap="round" stroke-linejoin="round"/>
</svg>
