<svg width="24" height="25" viewBox="0 0 24 25" fill="none" xmlns="http://www.w3.org/2000/svg">
<path d="M9 5.5C10.0609 5.5 11.0783 5.92143 11.8284 6.67157C12.5786 7.42172 13 8.43913 13 9.5C13 10.5609 12.5786 11.5783 11.8284 12.3284C11.0783 13.0786 10.0609 13.5 9 13.5C7.93913 13.5 6.92172 13.0786 6.17157 12.3284C5.42143 11.5783 5 10.5609 5 9.5C5 8.43913 5.42143 7.42172 6.17157 6.67157C6.92172 5.92143 7.93913 5.5 9 5.5ZM9 15.5C11.67 15.5 17 16.84 17 19.5V21.5H1V19.5C1 16.84 6.33 15.5 9 15.5ZM16.76 5.86C18.78 8.06 18.78 11.11 16.76 13.13L15.08 11.44C15.92 10.26 15.92 8.73 15.08 7.55L16.76 5.86ZM20.07 2.5C24 6.55 23.97 12.61 20.07 16.5L18.44 14.87C21.21 11.69 21.21 7.15 18.44 4.13L20.07 2.5Z" fill="#E7000B"/>
</svg>
