<svg width="24" height="25" viewBox="0 0 24 25" fill="none" xmlns="http://www.w3.org/2000/svg">
<path fill-rule="evenodd" clip-rule="evenodd" d="M19.5 4.25H4.5C4.30109 4.25 4.11032 4.32902 3.96967 4.46967C3.82902 4.61032 3.75 4.80109 3.75 5V20C3.75 20.1989 3.82902 20.3897 3.96967 20.5303C4.11032 20.671 4.30109 20.75 4.5 20.75H19.5C19.6989 20.75 19.8897 20.671 20.0303 20.5303C20.171 20.3897 20.25 20.1989 20.25 20V5C20.25 4.80109 20.171 4.61032 20.0303 4.46967C19.8897 4.32902 19.6989 4.25 19.5 4.25ZM4.5 2C3.70435 2 2.94129 2.31607 2.37868 2.87868C1.81607 3.44129 1.5 4.20435 1.5 5V20C1.5 20.7956 1.81607 21.5587 2.37868 22.1213C2.94129 22.6839 3.70435 23 4.5 23H19.5C20.2956 23 21.0587 22.6839 21.6213 22.1213C22.1839 21.5587 22.5 20.7956 22.5 20V5C22.5 4.20435 22.1839 3.44129 21.6213 2.87868C21.0587 2.31607 20.2956 2 19.5 2H4.5ZM18 16.7855L14.25 12.5L10.536 16.745L8.25 14L6 16.7V18.5H18V16.7855ZM9.75 12.5C10.3467 12.5 10.919 12.2629 11.341 11.841C11.7629 11.419 12 10.8467 12 10.25C12 9.65326 11.7629 9.08097 11.341 8.65901C10.919 8.23705 10.3467 8 9.75 8C9.15326 8 8.58097 8.23705 8.15901 8.65901C7.73705 9.08097 7.5 9.65326 7.5 10.25C7.5 10.8467 7.73705 11.419 8.15901 11.841C8.58097 12.2629 9.15326 12.5 9.75 12.5Z" fill="#E7000B"/>
</svg>
