<svg width="157" height="66" viewBox="0 0 157 66" fill="none" xmlns="http://www.w3.org/2000/svg">
<g clip-path="url(#clip0_204_3184)">
<path d="M130.58 44.4726C127.695 44.5144 126.159 42.6625 126.159 39.3772C126.159 39.1575 126.169 38.9482 126.18 38.7389H137.513C137.741 37.8705 137.887 36.9289 137.887 36.0605C137.887 32.0532 135.448 28.998 130.466 28.998C125.37 28.998 120.845 34.0621 120.845 39.3772C120.845 44.4726 124.146 47.5696 129.646 47.5696C132.085 47.5696 134.483 46.743 136.164 45.4561L135.116 42.809C133.798 43.8239 132.189 44.4307 130.58 44.4726ZM130.539 31.8544C132.22 31.8544 133.081 32.953 133.081 35.3699C133.081 35.6001 133.071 35.8407 133.04 36.0918H126.574C127.29 33.5494 128.785 31.8544 130.539 31.8544Z" fill="black"/>
<path d="M85.7141 27.8572C85.7141 23.7034 82.4968 20.6797 77.6189 20.6797H68.1849L61.0653 47.1088H67.0225L69.6483 37.3679H74.8167C80.7325 37.3679 85.7141 33.5176 85.7141 27.8572ZM72.5231 34.2709H70.4785L73.3015 23.7767H75.4498C78.1586 23.7767 79.6842 25.6286 79.6842 28.0769C79.6842 32.0109 76.6226 34.2709 72.5231 34.2709Z" fill="black"/>
<path d="M93.4668 29.4791L94.131 27.0204C94.4632 25.7334 95.034 23.5467 95.8124 21.0147C96.6322 18.4095 98.1371 16.7877 100.161 16.7877C101.136 16.7877 101.738 17.2376 101.738 17.991C101.697 18.8175 101.022 19.3093 101.022 20.638C101.022 22.1865 102.33 23.3898 104.022 23.3898C106.118 23.3898 107.799 21.6948 107.799 19.6127C107.799 16.4006 105.07 14.2871 100.908 14.2871C94.8056 14.2871 90.7996 18.2107 88.288 27.3866L78.1067 64.7493H83.8771L92.6781 32.3878H98.6768L94.733 47.109H100.503L105.226 29.4791H93.4668Z" fill="black"/>
<path d="M122.682 29.479H107.395L106.647 32.3877H114.047L102.569 47.1089H118.749L119.496 44.2002H111.172L122.682 29.479Z" fill="black"/>
<path d="M152.946 29.1758C150.88 29.1758 148.68 30.5255 146.957 33.3191L147.964 29.4792H142.194L137.472 47.1091H143.242L145.38 39.1782C146.241 35.9348 148.338 32.7541 149.728 32.7541C151.223 32.7541 150.663 35.5895 153.247 35.5895C155.115 35.5895 156.246 33.8527 156.246 32.2623C156.236 30.4209 154.772 29.1758 152.946 29.1758Z" fill="black"/>
<path d="M7.26332 30.3892C11.6742 28.7465 19.1882 28.328 29.1515 29.4789L32.0886 18.2837C20.7346 16.7142 8.80971 17.8756 6.02829 21.9038C4.80363 23.7139 4.48189 27.5014 7.26332 30.3892ZM51.0397 28.5791C46.6288 30.2218 39.1148 30.6403 29.1515 29.4894L26.2144 40.6846C37.5684 42.254 49.4933 41.0926 52.2747 37.0644C53.4994 35.2439 53.8211 31.4564 51.0397 28.5791ZM54.9627 32.5236L56.7582 25.7751C57.4121 23.3895 57.7338 22.1549 57.7338 21.1609C57.7338 12.5187 35.2644 1.97212 13.864 0.653809L10.8439 11.849C32.8981 13.4185 55.4505 24.2056 54.8693 32.5236H54.9627ZM3.34026 26.4342L1.54479 33.1827C0.890946 35.5683 0.569214 36.8029 0.569214 37.7968C0.569214 46.4391 23.0386 56.9857 44.439 58.304L47.4591 47.1088C25.3945 45.5393 2.85248 34.7522 3.42329 26.4342H3.34026Z" fill="black"/>
</g>
<defs>
<clipPath id="clip0_204_3184">
<rect width="156.289" height="65.016" fill="white" transform="translate(0.257874 0.193848)"/>
</clipPath>
</defs>
</svg>
