<svg width="24" height="25" viewBox="0 0 24 25" fill="none" xmlns="http://www.w3.org/2000/svg">
<path d="M7.875 10.625C7.875 10.3266 7.99353 10.0405 8.2045 9.8295C8.41548 9.61853 8.70163 9.5 9 9.5H15C15.2984 9.5 15.5845 9.61853 15.7955 9.8295C16.0065 10.0405 16.125 10.3266 16.125 10.625C16.125 10.9234 16.0065 11.2095 15.7955 11.4205C15.5845 11.6315 15.2984 11.75 15 11.75H9C8.70163 11.75 8.41548 11.6315 8.2045 11.4205C7.99353 11.2095 7.875 10.9234 7.875 10.625ZM10.875 13.25H9C8.70163 13.25 8.41548 13.3685 8.2045 13.5795C7.99353 13.7905 7.875 14.0766 7.875 14.375C7.875 14.6734 7.99353 14.9595 8.2045 15.1705C8.41548 15.3815 8.70163 15.5 9 15.5H10.875C11.1734 15.5 11.4595 15.3815 11.6705 15.1705C11.8815 14.9595 12 14.6734 12 14.375C12 14.0766 11.8815 13.7905 11.6705 13.5795C11.4595 13.3685 11.1734 13.25 10.875 13.25ZM21.375 5V15.1897C21.3757 15.436 21.3275 15.68 21.2332 15.9076C21.1388 16.1351 21.0003 16.3417 20.8256 16.5153L16.0153 21.3256C15.8417 21.5003 15.6351 21.6388 15.4076 21.7332C15.18 21.8275 14.936 21.8757 14.6897 21.875H4.5C4.00272 21.875 3.52581 21.6775 3.17417 21.3258C2.82254 20.9742 2.625 20.4973 2.625 20V5C2.625 4.50272 2.82254 4.02581 3.17417 3.67417C3.52581 3.32254 4.00272 3.125 4.5 3.125H19.5C19.9973 3.125 20.4742 3.32254 20.8258 3.67417C21.1775 4.02581 21.375 4.50272 21.375 5ZM4.875 19.625H13.5V15.125C13.5 14.8266 13.6185 14.5405 13.8295 14.3295C14.0405 14.1185 14.3266 14 14.625 14H19.125V5.375H4.875V19.625ZM17.9062 16.25H15.75V18.4062L17.9062 16.25Z" fill="#E7000B"/>
</svg>
