<svg width="24" height="25" viewBox="0 0 24 25" fill="none" xmlns="http://www.w3.org/2000/svg">
<path d="M2.00302 12.2159C2.04002 10.3729 2.05902 9.45187 2.67102 8.66387C2.79402 8.50683 2.93237 8.36245 3.08402 8.23287C3.83602 7.59687 4.83002 7.59687 6.81702 7.59687C7.52702 7.59687 7.88202 7.59687 8.22002 7.50487C8.29002 7.48487 8.35969 7.46253 8.42902 7.43787C8.75902 7.31687 9.05602 7.10787 9.64902 6.69187C11.987 5.04687 13.157 4.22487 14.138 4.58187C14.326 4.65087 14.508 4.74987 14.671 4.87187C15.519 5.50687 15.584 6.98687 15.713 9.94487C15.761 11.0409 15.793 11.9789 15.793 12.4999C15.793 13.0209 15.761 13.9599 15.713 15.0549C15.583 18.0129 15.519 19.4929 14.671 20.1279C14.5083 20.2498 14.3288 20.3475 14.138 20.4179C13.156 20.7749 11.988 19.9529 9.64802 18.3079C9.05602 17.8919 8.75902 17.6829 8.42802 17.5619C8.35953 17.537 8.29015 17.5147 8.22002 17.4949C7.88202 17.4029 7.52702 17.4029 6.81702 17.4029C4.83002 17.4029 3.83702 17.4029 3.08402 16.7669C2.93242 16.6376 2.79407 16.4936 2.67102 16.3369C2.05902 15.5469 2.04102 14.6269 2.00302 12.7849C1.99916 12.5949 1.99916 12.4058 2.00302 12.2159Z" fill="#E7000B"/>
<path fill-rule="evenodd" clip-rule="evenodd" d="M19.49 6.05224C19.5581 5.99083 19.6382 5.94428 19.7253 5.91555C19.8123 5.88683 19.9044 5.87656 19.9957 5.8854C20.087 5.89425 20.1754 5.92201 20.2553 5.96692C20.3353 6.01183 20.405 6.0729 20.46 6.14624L19.931 6.61724L20.461 6.14724L20.463 6.14924L20.466 6.15324L20.473 6.16224L20.552 6.27424C20.6 6.34558 20.662 6.44724 20.738 6.57924C20.887 6.84324 21.077 7.23124 21.264 7.75024C21.64 8.79124 22 10.3512 22 12.5002C22 14.6492 21.64 16.2102 21.264 17.2502C21.077 17.7702 20.887 18.1572 20.738 18.4222C20.6566 18.5655 20.5681 18.7047 20.473 18.8392L20.466 18.8482L20.463 18.8512L20.462 18.8532C20.462 18.8532 20.461 18.8542 19.931 18.3832L20.461 18.8542C20.406 18.9277 20.3362 18.9889 20.2562 19.034C20.1762 19.079 20.0876 19.1068 19.9962 19.1156C19.9049 19.1245 19.8126 19.1142 19.7255 19.0853C19.6383 19.0565 19.5581 19.0098 19.49 18.9482C19.3485 18.8181 19.2608 18.6397 19.2441 18.4482C19.2275 18.2567 19.2831 18.0659 19.4 17.9132L19.43 17.8722C19.4567 17.8322 19.4983 17.7632 19.555 17.6652C19.7225 17.3636 19.8637 17.0481 19.977 16.7222C20.291 15.8512 20.621 14.4692 20.621 12.5002C20.621 10.5312 20.291 9.15024 19.977 8.27824C19.8636 7.9527 19.7225 7.63754 19.555 7.33624C19.5069 7.24936 19.4545 7.16492 19.398 7.08324M17.757 8.91624C18.09 8.71924 18.51 8.84624 18.695 9.20224L18.696 9.20424L18.698 9.20724L18.701 9.21424L18.711 9.23224L18.735 9.28524C18.7537 9.32724 18.777 9.38391 18.805 9.45524C18.858 9.60024 18.925 9.80524 18.99 10.0752C19.12 10.6152 19.242 11.4122 19.242 12.5002C19.242 13.5892 19.12 14.3862 18.99 14.9262C18.925 15.1962 18.858 15.4012 18.804 15.5452C18.7757 15.6208 18.7443 15.6952 18.71 15.7682L18.701 15.7862L18.698 15.7932L18.696 15.7962V15.7982C18.696 15.7982 18.695 15.7992 18.092 15.4422L18.695 15.7992C18.51 16.1542 18.09 16.2822 17.757 16.0852C17.427 15.8892 17.307 15.4472 17.485 15.0942L17.489 15.0842L17.524 14.9992C17.556 14.9132 17.604 14.7692 17.654 14.5612C17.754 14.1452 17.862 13.4712 17.862 12.5012C17.862 11.5302 17.754 10.8562 17.654 10.4412C17.6111 10.263 17.5559 10.0879 17.489 9.91724L17.485 9.90724C17.398 9.73799 17.3777 9.54229 17.4281 9.3588C17.4785 9.17531 17.5958 9.01739 17.757 8.91624Z" fill="#E7000B"/>
</svg>
