<svg width="24" height="25" viewBox="0 0 24 25" fill="none" xmlns="http://www.w3.org/2000/svg">
<g clip-path="url(#clip0_71_1018)">
<path d="M3.53903 15.932V13.444H20.461V15.932M19.775 5.729H21.268M19.466 9.153L20.521 10.209M19.466 2.306L20.521 1.25M4.22503 5.729H2.73203M4.53403 9.153L3.47803 10.209M4.53403 2.306L3.47803 1.25M12 10.311V15.435M0.801025 21.137C0.801025 21.83 1.07632 22.4946 1.56636 22.9847C2.05639 23.4747 2.72101 23.75 3.41403 23.75C4.10704 23.75 4.77166 23.4747 5.2617 22.9847C5.75173 22.4946 6.02703 21.83 6.02703 21.137C6.02703 20.444 5.75173 19.7794 5.2617 19.2893C4.77166 18.7993 4.10704 18.524 3.41403 18.524C2.72101 18.524 2.05639 18.7993 1.56636 19.2893C1.07632 19.7794 0.801025 20.444 0.801025 21.137ZM9.51103 18.67H14.488V23.647H9.51103V18.67ZM23.199 23.647H17.226L20.212 18.172L23.199 23.647ZM15.733 5.085C15.7342 4.4117 15.5532 3.75061 15.2093 3.17177C14.8654 2.59293 14.3713 2.11788 13.7794 1.79694C13.1875 1.476 12.5199 1.32112 11.8471 1.3487C11.1744 1.37628 10.5216 1.58529 9.95799 1.95361C9.39435 2.32192 8.94083 2.83582 8.64544 3.44087C8.35006 4.04593 8.22382 4.7196 8.28009 5.39055C8.33636 6.0615 8.57305 6.70474 8.96509 7.25214C9.35713 7.79954 9.88992 8.23071 10.507 8.5V10.311H13.493V8.501C14.1582 8.21117 14.7244 7.73364 15.1222 7.1269C15.5201 6.52016 15.7323 5.81055 15.733 5.085Z" stroke="#E7000B" stroke-width="1.5" stroke-linecap="round" stroke-linejoin="round"/>
</g>
<defs>
<clipPath id="clip0_71_1018">
<rect width="24" height="24" fill="white" transform="translate(0 0.5)"/>
</clipPath>
</defs>
</svg>
