<svg width="174" height="40" viewBox="0 0 174 40" fill="none" xmlns="http://www.w3.org/2000/svg">
<g clip-path="url(#clip0_204_3248)">
<path d="M107.387 36.7212L128.015 0.74707H119.081L104.496 30.347L105.614 16.7524H97.9932L98.0592 36.7212L107.387 36.7212ZM146.622 36.7924L148.002 31.1983H140.644L144.849 16.751H137.03L131.71 36.7923L146.622 36.7924ZM72.5048 36.7924L74.0819 31.1983H66.8562L67.4464 29.0035H74.2796L75.658 23.8335H68.9571L69.4826 21.9211H77.1691L78.5488 16.7511H63.1769L57.7247 36.7924L72.5048 36.7924ZM3.77301 36.651C5.23035 37.1708 6.93616 37.3354 8.47312 37.3502H8.94983C10.0336 37.3401 11.0056 37.2635 11.7059 37.2C19.129 36.5274 19.7543 30.2013 19.4056 28.4326C19.0314 26.5313 17.881 25.6737 16.895 25.1075C15.8772 24.6118 14.1177 24.0651 12.1322 23.4432C11.2256 23.1598 10.8988 22.907 10.9831 21.9382C11.1307 21.1773 11.8376 20.9822 12.593 20.9822C13.4681 20.9822 14.1542 21.0057 14.2348 21.8139C14.2846 22.3096 14.202 23.231 14.202 23.231H20.9194C20.9194 23.231 22.3243 19.9462 20.2294 17.7242C18.2893 15.6691 12.176 15.9542 9.58743 16.3971C3.04317 17.4949 3.01498 23.3116 3.6914 25.5507C4.41061 27.9326 9.25967 28.9235 9.75098 29.0021C11.0869 29.2194 11.5792 29.6845 11.624 30.6492C11.6678 31.5881 10.9015 32.2601 9.88268 32.2775C8.8357 32.2963 7.87632 32.2886 8.20805 29.7463H0.767751C0.624439 30.4273 0.511647 31.1492 0.505676 31.8692C0.520605 33.6688 1.22325 35.563 3.77301 36.651ZM149.038 28.7902C148.051 32.4008 148.784 33.514 149.826 34.7386C152.158 37.2528 155.87 37.0405 156.855 37.0405C161.984 37.0429 163.86 35.1644 164.517 34.4193C165.724 33.0522 166.496 29.9202 166.496 29.9202L170.387 16.6809H162.882L159.22 29.0206C159.22 29.0206 158.781 30.4629 158.538 30.8897C158.103 31.6536 157.096 31.6496 156.642 31.5351C156.25 31.4364 155.728 31.0142 155.867 30.3037C156.09 29.344 156.149 29.1626 156.149 29.1626L159.86 16.6809H152.29C152.29 16.6809 149.796 26.0182 149.038 28.7902ZM20.8318 28.9309C19.8442 32.5401 20.5781 33.653 21.62 34.8793C23.9525 37.3931 27.6637 37.1799 28.6483 37.1812C33.7794 37.1826 35.6534 35.3034 36.3115 34.5596C37.5181 33.1929 38.291 30.0596 38.291 30.0596L42.1824 16.8212H34.6761L31.014 29.1603C31.014 29.1603 30.5751 30.6032 30.3316 31.0303C29.8963 31.794 28.8895 31.7903 28.435 31.6754C28.0462 31.577 27.5237 31.1549 27.6624 30.443C27.883 29.4847 27.9427 29.302 27.9427 29.302L31.6549 16.8212H24.0832C24.0832 16.8212 21.5895 26.1589 20.8318 28.9309ZM85.8073 24.9661L86.9565 21.2132H88.5833C88.9884 21.2132 89.7534 21.6991 89.405 23.0722C89.0126 24.6119 87.3293 24.9661 87.5158 24.9661H85.8073ZM82.6143 36.742L84.5351 29.5673H86.7531C87.4146 29.5673 87.5476 30.2815 87.4816 30.7453C87.4146 31.2094 87.1174 32.4233 87.1174 32.4233L85.9914 36.7061H93.4118C93.4118 36.7061 93.6338 35.5442 94.0116 33.9847C94.4137 32.3329 95.0184 30.4333 95.0672 29.4598C95.1694 27.4259 93.2148 27.0689 93.2148 27.0689C93.2148 27.0689 96.6625 26.6199 96.9561 21.5006C97.1927 17.3817 93.517 16.6953 92.0556 16.7534C90.9052 16.7373 80.2632 16.7534 80.2632 16.7534L74.7839 36.7421L82.6143 36.742ZM120.803 28.5061L124.467 22.1336L124.008 28.5061H120.803ZM117.044 36.7914L118.885 33.3927H123.483L123.219 36.7914H130.708L131.168 16.7511H120.855L109.555 36.7914H117.044ZM49.1176 25.2495L50.2671 21.2132C50.2671 21.2132 51.2849 21.2132 51.615 21.2132C52.2181 21.2145 52.9811 21.5893 52.7973 22.9476C52.586 24.4993 51.3191 25.0373 50.563 25.1793C49.8076 25.3197 49.1176 25.2495 49.1176 25.2495ZM46.1014 36.7591L48.1539 29.5847C48.1539 29.5847 51.8585 29.5847 52.9287 29.5847C55.4088 29.582 57.9841 27.9829 59.1843 25.8368C60.4114 23.6387 60.8991 20.2853 58.9541 18.1278C57.6086 16.6348 55.1786 16.7349 53.688 16.7349H43.7481L38.3188 36.7591L46.1014 36.7591ZM170.357 34.0526C170.809 34.0526 171.25 34.1701 171.681 34.4045C172.112 34.6402 172.448 34.9753 172.688 35.4136C172.929 35.8501 173.049 36.3068 173.049 36.7816C173.049 37.2518 172.931 37.7031 172.693 38.1363C172.457 38.5704 172.124 38.9073 171.697 39.1467C171.27 39.3871 170.824 39.5067 170.357 39.5067C169.89 39.5067 169.443 39.3871 169.016 39.1467C168.588 38.9073 168.256 38.5704 168.018 38.1363C167.779 37.7031 167.661 37.2518 167.661 36.7816C167.661 36.3068 167.782 35.8501 168.023 35.4136C168.264 34.9753 168.601 34.6402 169.032 34.4045C169.462 34.1701 169.905 34.0526 170.357 34.0526ZM170.357 34.5046C169.978 34.5046 169.61 34.6029 169.251 34.7994C168.893 34.9955 168.613 35.2766 168.411 35.6406C168.208 36.0056 168.107 36.3857 168.107 36.7816C168.107 37.1742 168.207 37.5503 168.406 37.9106C168.604 38.2706 168.882 38.5516 169.239 38.7528C169.596 38.9543 169.968 39.0553 170.357 39.0553C170.744 39.0553 171.118 38.9543 171.474 38.7528C171.831 38.5516 172.108 38.2706 172.305 37.9106C172.503 37.5503 172.602 37.1742 172.602 36.7816C172.602 36.3857 172.502 36.0056 172.301 35.6406C172.099 35.2766 171.82 34.9955 171.46 34.7994C171.1 34.6029 170.732 34.5046 170.357 34.5046ZM169.175 38.2877V35.3541H170.17C170.511 35.3541 170.758 35.38 170.91 35.4347C171.062 35.4888 171.183 35.5835 171.275 35.7181C171.365 35.8538 171.41 35.9969 171.41 36.1486C171.41 36.3636 171.334 36.5499 171.183 36.7091C171.032 36.8679 170.831 36.9569 170.581 36.9764C170.684 37.0197 170.767 37.0714 170.827 37.1322C170.944 37.2481 171.087 37.4415 171.256 37.7141L171.61 38.2877H171.038L170.781 37.8256C170.578 37.4626 170.417 37.2346 170.292 37.1433C170.207 37.0755 170.081 37.0419 169.917 37.0419H169.643V38.2877L169.175 38.2877ZM169.643 36.6372H170.211C170.481 36.6372 170.666 36.5953 170.765 36.5137C170.864 36.4327 170.914 36.3239 170.914 36.1883C170.914 36.102 170.889 36.0244 170.842 35.9549C170.794 35.8871 170.728 35.8353 170.644 35.8021C170.559 35.7675 170.403 35.7514 170.174 35.7514H169.643V36.6372Z" fill="black"/>
</g>
<defs>
<clipPath id="clip0_204_3248">
<rect width="172.543" height="38.7597" fill="white" transform="translate(0.505676 0.74707)"/>
</clipPath>
</defs>
</svg>
