<svg width="24" height="25" viewBox="0 0 24 25" fill="none" xmlns="http://www.w3.org/2000/svg">
<path d="M17 3.83989C18.5202 4.71758 19.7826 5.97997 20.6603 7.50017C21.538 9.02038 22 10.7448 22 12.5002C22 14.2556 21.5379 15.98 20.6602 17.5002C19.7825 19.0204 18.5201 20.2828 16.9999 21.1605C15.4797 22.0381 13.7552 22.5002 11.9998 22.5001C10.2445 22.5001 8.52002 22.038 6.99984 21.1603C5.47965 20.2826 4.21729 19.0202 3.33963 17.5C2.46198 15.9797 1.99996 14.2553 2 12.4999L2.005 12.1759C2.061 10.4489 2.56355 8.76585 3.46364 7.29089C4.36373 5.81592 5.63065 4.59934 7.14089 3.75977C8.65113 2.92021 10.3531 2.48629 12.081 2.50033C13.8089 2.51437 15.5036 2.97589 17 3.83989ZM16.914 8.90589C17.286 8.06889 16.431 7.21389 15.594 7.58589L6.594 11.5859L6.486 11.6409C5.736 12.0809 5.875 13.2499 6.757 13.4709L10.175 14.3239L11.03 17.7429C11.26 18.6649 12.528 18.7749 12.914 17.9059L16.914 8.90589Z" fill="#E7000B"/>
</svg>
