<svg width="158" height="41" viewBox="0 0 158 41" fill="none" xmlns="http://www.w3.org/2000/svg">
<g clip-path="url(#clip0_204_3231)">
<path d="M0.170959 31.782L26.0997 40.7042L51.9497 31.782V0.694336H0.170959V31.782ZM36.9591 22.1797C30.7031 21.0994 28.2243 19.0989 28.2243 15.2579C28.2243 9.73658 34.0868 8.29622 38.3755 8.29622C43.0183 8.29622 48.6053 9.57654 48.8414 15.1779H41.3658V15.2579C41.2871 14.5378 40.933 13.9776 40.3821 13.6175C39.8706 13.1774 39.2411 12.9774 38.5329 12.9774C37.3919 12.9774 36.0541 13.2574 36.0541 14.6178C36.0541 15.2579 36.5656 15.538 37.0377 15.7781C38.3755 16.3382 41.4838 16.5783 44.238 17.4185C46.9922 18.2987 49.3922 19.9391 49.3922 23.54C49.3922 29.6615 43.6871 31.2219 38.4542 31.2219C33.3786 31.2219 27.8702 29.1414 27.7128 23.54H35.5426C35.6213 24.3402 35.8967 24.9003 36.5263 25.4605C36.9591 25.8206 37.746 26.1006 38.7296 26.1006C39.7919 26.1006 41.4838 25.6605 41.4838 24.4602C41.4838 23.1799 40.7756 22.8198 36.9591 22.1797ZM3.71206 8.89637H11.8959V20.3792C11.8959 22.8998 12.1714 24.7003 14.5714 24.7003C15.9879 24.7003 17.8371 23.9801 17.8371 20.4592V8.89637H26.021V30.8218H18.1125V28.0211H18.0338C16.4994 30.2617 14.296 31.3419 11.0303 31.3419C7.17447 31.3019 3.71206 28.9413 3.71206 23.9001V8.89637Z" fill="black"/>
<path d="M69.0257 8.37624C66.6256 8.37624 64.4222 9.45651 63.1632 11.337H63.1238V0.694336H54.9399V30.7018H62.8484V28.3412H62.9271C63.9107 29.7015 65.1698 31.3019 69.2224 31.3019C75.2816 31.3019 78.2719 25.1804 78.2719 19.7391C78.2325 14.6178 76.2652 8.37624 69.0257 8.37624ZM66.4288 25.2604C63.4779 25.2604 62.8091 22.3797 62.8091 19.8191C62.8091 17.2584 63.4386 14.4177 66.4288 14.4177C69.3404 14.4177 70.0486 17.2984 70.0486 19.8191C70.0486 22.4597 69.3798 25.2604 66.4288 25.2604Z" fill="black"/>
<path d="M156.648 28.5816C156.648 28.3015 156.57 28.1415 156.373 28.0615C156.215 27.9814 156.097 27.9814 155.822 27.9814H155.114V29.9819H155.389V29.1817H155.665C155.861 29.1817 156.019 29.1817 156.097 29.2618C156.255 29.3418 156.294 29.4618 156.294 29.7819V29.9819H156.648V29.5418C156.648 29.4618 156.57 29.3418 156.491 29.2618C156.412 29.1017 156.294 29.1017 156.137 29.0617C156.294 29.0617 156.333 28.9817 156.412 28.9817C156.57 28.9417 156.648 28.7816 156.648 28.5816ZM156.058 28.8617C155.979 28.8617 155.861 28.9417 155.704 28.9417H155.35V28.2215H155.625C155.822 28.2215 155.979 28.2215 156.058 28.3015C156.137 28.3815 156.215 28.4616 156.215 28.5816C156.294 28.7016 156.215 28.7816 156.058 28.8617Z" fill="black"/>
<path d="M152.045 8.89637H142.798L137.566 15.2179V0.694336H129.382H129.303V30.7818H137.487V24.4602L138.982 22.8998L143.349 30.7818H153.225L144.333 17.1384L152.045 8.89637Z" fill="black"/>
<path d="M157.12 27.6207C156.766 27.2606 156.333 27.0605 155.783 27.0605C155.271 27.0605 154.878 27.2606 154.445 27.6207C154.091 27.9808 153.894 28.4209 153.894 28.981C153.894 29.5011 154.091 29.9813 154.445 30.3414C154.799 30.7014 155.232 30.9015 155.783 30.9015C156.294 30.9015 156.688 30.7014 157.12 30.3414C157.474 29.9813 157.671 29.5412 157.671 28.981C157.632 28.4209 157.474 27.9808 157.12 27.6207ZM156.924 30.0613C156.648 30.3414 156.215 30.5814 155.783 30.5814C155.35 30.5814 154.917 30.4214 154.642 30.0613C154.366 29.7812 154.13 29.3411 154.13 28.901C154.13 28.4609 154.287 28.0208 154.642 27.7407C154.917 27.4606 155.35 27.2206 155.783 27.2206C156.215 27.3006 156.648 27.4206 156.924 27.7407C157.199 28.0208 157.435 28.4609 157.435 28.901C157.435 29.3411 157.278 29.7812 156.924 30.0613Z" fill="black"/>
<path d="M119.073 8.37646C115.807 8.37646 113.643 9.45673 112.07 11.6973H111.991V8.89659H104.083V30.822H112.266V19.2191C112.266 15.6983 114.116 14.9781 115.532 14.9781C117.932 14.9781 118.208 16.7785 118.208 19.2992V30.782H126.47V15.7783C126.47 10.737 122.929 8.37646 119.073 8.37646Z" fill="black"/>
<path d="M101.171 25.9007V16.8585C101.171 12.6175 101.328 8.29639 90.9805 8.29639C85.9049 8.29639 80.1604 9.29663 79.885 15.4982H87.5181C87.5181 14.5779 88.0296 13.2576 90.5477 13.2576C91.8854 13.2576 93.2232 13.7777 93.2232 15.2581C93.2232 16.6185 92.0821 16.9785 90.9805 17.1786C86.8098 17.9788 78.8227 17.7387 78.8227 24.6604C78.8227 29.2616 82.2064 31.2621 86.377 31.2621C89.0525 31.2621 91.5313 30.7019 93.3019 28.6614H93.3805C93.3019 29.2216 93.4592 30.1818 93.656 30.7419H102.076C101.171 29.3816 101.092 27.5011 101.092 25.8607H101.171V25.9007ZM93.2625 20.9395V22.94C93.1051 25.2206 91.6493 26.3809 89.8001 26.3809C88.305 26.3809 87.2426 25.3806 87.2426 24.3804C87.2426 22.86 88.1476 22.4599 89.9968 22.0198C91.1379 21.7397 92.2789 21.4596 93.2625 20.9395Z" fill="black"/>
</g>
<defs>
<clipPath id="clip0_204_3231">
<rect width="157.54" height="40.0099" fill="white" transform="translate(0.170959 0.694336)"/>
</clipPath>
</defs>
</svg>
