<svg width="156" height="156" viewBox="0 0 156 156" fill="none" xmlns="http://www.w3.org/2000/svg">
<path d="M3.74646 0.407708C2.99872 0.407708 2.62486 0.407708 2.25099 0.781575C1.87712 0.781575 1.50325 1.15544 1.12938 1.52931C0.755508 1.90318 0.381653 2.27704 0.381653 2.65091C0.00778187 3.02478 0.00779709 3.77251 0.00779708 4.14638L0.00779579 33.6819L0.00779191 122.288L0.00779062 151.824C0.00779059 152.572 0.00777531 152.945 0.381646 153.319C0.381646 153.693 0.755502 154.067 1.12937 154.441C1.50324 154.815 1.87711 155.189 2.25099 155.563C2.62486 155.563 2.99871 155.563 3.74645 155.563L33.2819 155.563L121.888 155.563L151.424 155.563C152.172 155.563 152.546 155.563 152.919 155.563C153.293 155.189 153.667 154.815 154.041 154.441C154.415 154.067 154.789 153.693 154.789 153.319C155.163 152.945 155.163 152.572 155.163 151.824L155.163 122.288L155.163 33.6819L155.163 4.14639L155.163 3.77252C155.163 2.65092 154.789 1.90318 154.041 1.52932C153.293 0.781582 152.546 0.407715 151.424 0.407715L121.888 0.407713L33.282 0.40771L3.74646 0.407708ZM7.48512 7.88505L29.5433 7.88505L29.5433 29.9432L7.48512 29.9432L7.48512 7.88505ZM37.0206 7.88505L118.15 7.88505L118.15 29.9432L51.6014 29.9432L37.0206 29.9432L37.0206 7.88505ZM125.627 7.88505L147.685 7.88506L147.685 29.9432L125.627 29.9432L125.627 7.88505ZM7.48512 37.4205L29.5433 37.4205L29.5433 89.0142C29.5433 101.352 35.5251 111.82 44.498 118.55L33.2819 118.55L7.48512 118.55L7.48512 37.4205ZM37.0206 37.4205L47.8628 37.4205L47.8628 89.0142C47.8628 99.1086 56.4617 107.708 66.5561 107.708C76.6505 107.708 84.8756 99.1086 84.8756 89.0142L84.8756 37.4205L96.0916 37.4205L96.0916 89.0142C96.0916 105.464 83.0063 118.55 66.5561 118.55C50.106 118.55 37.0206 105.464 37.0206 89.0142L37.0206 37.4205ZM55.3401 37.4205L77.3983 37.4205L77.3983 89.0142C77.3983 95.3699 72.538 100.23 66.5561 100.23C60.2004 100.23 55.3401 95.3699 55.3401 89.0142L55.3401 37.4205ZM103.569 37.4205L118.15 37.4205L118.15 118.55L88.6143 118.55C97.5871 111.82 103.569 101.352 103.569 89.0142L103.569 37.4205ZM125.627 37.4206L147.685 37.4206L147.685 118.55L125.627 118.55L125.627 37.4206ZM7.48512 126.027L29.5433 126.027L29.5433 148.459L7.48512 148.459L7.48512 126.027ZM37.0206 126.027L118.15 126.027L118.15 148.459L37.0206 148.459L37.0206 126.027ZM125.627 126.027L147.685 126.027L147.685 148.459L125.627 148.459L125.627 126.027Z" fill="white"/>
</svg>
