<svg width="24" height="25" viewBox="0 0 24 25" fill="none" xmlns="http://www.w3.org/2000/svg">
<path d="M2.50001 17.1367C1.80143 13.84 1.80143 10.4335 2.50001 7.13672C2.5918 6.80193 2.76914 6.49679 3.01461 6.25132C3.26008 6.00586 3.56522 5.82851 3.90001 5.73672C9.26346 4.84818 14.7366 4.84818 20.1 5.73672C20.4348 5.82851 20.7399 6.00586 20.9854 6.25132C21.2309 6.49679 21.4082 6.80193 21.5 7.13672C22.1986 10.4335 22.1986 13.84 21.5 17.1367C21.4082 17.4715 21.2309 17.7766 20.9854 18.0221C20.7399 18.2676 20.4348 18.4449 20.1 18.5367C14.7366 19.4254 9.26344 19.4254 3.90001 18.5367C3.56522 18.4449 3.26008 18.2676 3.01461 18.0221C2.76914 17.7766 2.5918 17.4715 2.50001 17.1367Z" stroke="#0A7479" stroke-linecap="round" stroke-linejoin="round"/>
<path d="M10 15.1367L15 12.1367L10 9.13672V15.1367Z" stroke="#0A7479" stroke-linecap="round" stroke-linejoin="round"/>
</svg>
