<svg width="1320" height="479" viewBox="0 0 1320 479" fill="none" xmlns="http://www.w3.org/2000/svg">
<path d="M329.377 205.379L486.775 205.379L565.661 341.841L486.775 478.302L329.377 478.302L250.491 341.841L329.377 205.379Z" fill="white"/>
<path d="M78.512 53.9634L236.284 53.9634L315.17 190.425L236.284 326.886L78.512 326.886L-5.96492e-06 190.425L78.512 53.9634Z" fill="#FA0000"/>
<g clip-path="url(#clip0_204_2504)">
<path d="M581.364 53.9634L739.136 53.9634L818.021 190.425L739.135 326.886L581.364 326.886L502.852 190.425L581.364 53.9634Z" fill="#FA0000"/>
</g>
<g clip-path="url(#clip1_204_2504)">
<path d="M1084.21 53.9634L1241.99 53.9634L1320.5 190.425L1241.99 326.886L1084.21 326.886L1005.7 190.425L1084.21 53.9634Z" fill="#FA0000"/>
</g>
<path d="M832.228 205.379L989.626 205.379L1068.51 341.841L989.626 478.302L832.228 478.302L753.342 341.841L832.228 205.379Z" fill="white"/>
<path d="M354.053 264.824L354.053 282.022L336.481 282.022L336.481 418.484L417.236 418.484C414.619 416.241 412.75 413.997 410.88 411.38L343.584 411.38L343.584 289.126L361.156 289.126L361.156 271.554L430.695 271.554L430.695 282.022L367.886 282.022L367.886 289.126L430.695 289.126L434.434 289.126L448.267 289.126L448.267 345.206C450.884 345.58 453.127 345.954 455.371 346.327L455.371 282.022L437.799 282.022L437.799 264.824L354.053 264.824ZM357.417 302.959L357.417 310.062L371.624 310.062L371.624 302.959L357.417 302.959ZM388.822 302.959L388.822 310.062L403.029 310.062L403.029 302.959L388.822 302.959ZM420.227 302.959L420.227 310.062L434.434 310.062L434.434 302.959L420.227 302.959ZM357.417 320.531L357.417 327.634L371.624 327.634L371.624 320.531L357.417 320.531ZM388.822 320.531L388.822 327.634L403.029 327.634L403.029 320.531L388.822 320.531ZM420.227 320.531L420.227 327.634L434.434 327.634L434.434 320.531L420.227 320.531ZM357.417 338.102L357.417 345.206L371.624 345.206L371.624 338.102L357.417 338.102ZM388.822 338.102L388.822 345.206L403.029 345.206L403.029 338.102L388.822 338.102ZM420.227 338.102L420.227 345.206L434.434 345.206L434.434 338.102L420.227 338.102ZM469.577 348.571C468.83 348.571 468.456 348.571 468.082 348.945C467.708 348.945 467.334 349.318 466.96 349.692C466.587 350.066 466.587 350.44 466.213 350.814C466.213 351.188 465.839 351.562 465.839 351.935L465.839 357.543L446.398 379.976C446.024 379.976 445.65 379.976 444.902 379.976C444.155 379.976 443.407 380.349 442.285 380.349C441.537 380.723 440.79 381.471 440.042 382.219C439.294 382.593 438.92 383.34 438.547 384.462C438.173 385.21 438.173 385.957 438.173 387.079C438.173 387.827 438.173 388.948 438.547 389.696C438.92 390.444 439.294 391.191 440.042 391.939C440.79 392.687 441.537 393.061 442.285 393.435C443.407 393.809 444.155 393.809 444.902 393.809C445.65 393.809 446.024 393.809 446.772 393.809C447.145 393.809 447.893 393.435 448.267 393.061C448.641 393.061 449.015 392.687 449.763 392.313C450.136 391.939 450.51 391.565 450.884 391.191C450.884 390.444 451.258 390.07 451.632 389.696C451.632 388.948 452.006 388.574 452.006 387.827C452.006 387.453 452.006 387.079 452.006 386.331C452.006 385.957 452.006 385.21 451.632 384.836L471.073 362.404L476.681 362.404C477.055 362.404 477.429 362.404 477.803 362.404C478.176 362.03 478.55 362.03 478.924 361.656C479.298 361.282 479.672 360.908 479.672 360.534C480.046 359.787 480.046 359.413 480.046 359.039C480.046 358.665 480.046 358.291 479.672 357.543C479.672 357.17 479.298 356.796 478.924 356.422C478.55 356.048 478.176 356.048 477.803 355.674C477.429 355.674 477.055 355.674 476.681 355.674L472.942 355.674L472.942 351.935C472.942 351.562 472.942 351.188 472.568 350.814C472.568 350.066 472.195 349.692 471.821 349.692C471.821 349.318 471.073 348.945 470.699 348.571C470.325 348.571 469.951 348.571 469.577 348.571ZM444.902 351.935C425.835 351.935 410.133 367.638 410.133 387.079C410.133 406.146 425.835 421.849 444.902 421.849C464.343 421.849 480.046 406.146 480.046 387.079C480.046 380.349 478.176 373.994 474.812 368.759L469.951 374.367C471.821 378.106 472.942 382.593 472.942 387.079C472.942 402.407 460.605 414.745 444.902 414.745C429.574 414.745 417.236 402.407 417.236 387.079C417.236 371.75 429.574 359.039 444.902 359.039C448.267 359.039 451.258 359.413 454.249 360.534L459.109 354.926C454.623 353.057 450.136 351.935 444.902 351.935ZM357.417 355.674L357.417 362.404L371.624 362.404L371.624 355.674L357.417 355.674ZM388.822 355.674L388.822 362.404L403.029 362.404L403.029 355.674L388.822 355.674ZM444.902 366.142C433.312 366.142 423.966 375.489 423.966 387.079C423.966 398.669 433.312 408.016 444.902 408.016C456.492 408.016 465.839 398.669 465.839 387.079C465.839 384.462 465.465 382.219 464.717 380.349L459.109 387.079C459.109 394.556 452.753 400.912 444.902 400.912C437.425 400.912 431.069 394.556 431.069 387.079C431.069 379.976 436.303 373.994 443.033 373.246L449.015 366.516C447.893 366.142 446.398 366.142 444.902 366.142ZM357.417 372.872L357.417 379.976L371.624 379.976L371.624 372.872L357.417 372.872ZM388.822 372.872L388.822 379.976L403.029 379.976L403.029 372.872L388.822 372.872ZM357.417 390.444L357.417 397.547L371.624 397.547L371.624 390.444L357.417 390.444ZM388.822 390.444L388.822 397.547L403.029 397.547L403.029 390.444L388.822 390.444Z" fill="#FA0000"/>
<path d="M83.7465 113.408C82.9987 113.408 82.6249 113.408 82.251 113.782C81.8771 113.782 81.5033 114.155 81.1294 114.529C80.7555 114.903 80.3817 115.277 80.3817 115.651C80.0078 116.025 80.0078 116.773 80.0078 117.146L80.0078 146.682L80.0078 235.288L80.0078 264.824C80.0078 265.572 80.0078 265.945 80.3816 266.319C80.3816 266.693 80.7555 267.067 81.1294 267.441C81.5032 267.815 81.8771 268.189 82.251 268.563C82.6249 268.563 82.9987 268.563 83.7465 268.563L113.282 268.563L201.888 268.563L231.424 268.563C232.172 268.563 232.546 268.563 232.919 268.563C233.293 268.189 233.667 267.815 234.041 267.441C234.415 267.067 234.789 266.693 234.789 266.319C235.163 265.945 235.163 265.572 235.163 264.824L235.163 235.288L235.163 146.682L235.163 117.146L235.163 116.773C235.163 115.651 234.789 114.903 234.041 114.529C233.293 113.782 232.546 113.408 231.424 113.408L201.888 113.408L113.282 113.408L83.7465 113.408ZM87.4851 120.885L109.543 120.885L109.543 142.943L87.4851 142.943L87.4851 120.885ZM117.021 120.885L198.15 120.885L198.15 142.943L131.601 142.943L117.021 142.943L117.021 120.885ZM205.627 120.885L227.685 120.885L227.685 142.943L205.627 142.943L205.627 120.885ZM87.4851 150.421L109.543 150.421L109.543 202.014C109.543 214.352 115.525 224.82 124.498 231.55L113.282 231.55L87.4851 231.55L87.4851 150.421ZM117.021 150.421L127.863 150.421L127.863 202.014C127.863 212.109 136.462 220.708 146.556 220.708C156.651 220.708 164.876 212.109 164.876 202.014L164.876 150.421L176.092 150.421L176.092 202.014C176.092 218.464 163.006 231.55 146.556 231.55C130.106 231.55 117.021 218.464 117.021 202.014L117.021 150.421ZM135.34 150.421L157.398 150.421L157.398 202.014C157.398 208.37 152.538 213.23 146.556 213.23C140.2 213.23 135.34 208.37 135.34 202.014L135.34 150.421ZM183.569 150.421L198.15 150.421L198.15 231.55L168.614 231.55C177.587 224.82 183.569 214.352 183.569 202.014L183.569 150.421ZM205.627 150.421L227.685 150.421L227.685 231.55L205.627 231.55L205.627 150.421ZM87.4851 239.027L109.543 239.027L109.543 261.459L87.4851 261.459L87.4851 239.027ZM117.021 239.027L198.15 239.027L198.15 261.459L117.021 261.459L117.021 239.027ZM205.627 239.027L227.685 239.027L227.685 261.459L205.627 261.459L205.627 239.027Z" fill="white"/>
<path d="M660.623 125.372C658.753 125.372 657.258 126.12 656.136 127.241L651.65 132.102L650.902 132.102L645.294 129.111C642.303 127.241 637.817 128.363 636.321 131.728L633.704 137.71C633.704 138.084 633.33 138.084 632.957 138.084L626.975 136.588C623.236 136.214 619.497 138.457 619.123 142.196L618.376 148.552C618.376 148.926 618.376 148.926 618.002 149.3L611.646 150.047C607.908 150.421 605.29 153.786 606.038 157.525L607.534 163.507C607.534 163.88 607.16 164.254 607.16 164.254L601.178 166.871C597.813 168.741 596.691 172.853 598.187 175.844L601.552 181.452L601.178 182.2L596.691 186.686C594.074 188.929 594.074 193.416 596.691 196.033L601.178 200.145L601.552 200.893L598.187 206.501C596.691 209.866 597.813 213.979 601.178 215.474L607.16 218.091C607.16 218.465 607.534 218.465 607.534 218.839L606.038 225.195C605.29 228.559 607.907 232.298 611.646 232.672L618.002 233.42C618.376 233.42 618.376 233.793 618.376 234.167L619.123 240.149C619.497 243.888 623.236 246.505 626.975 245.757L632.957 244.636C633.33 244.636 633.704 244.636 633.704 245.01L636.321 250.618C637.817 253.982 642.303 255.478 645.294 253.608L650.902 250.618L651.65 250.618L656.136 255.104C658.379 258.095 662.866 258.095 665.483 255.104L669.596 250.618L670.343 250.618L675.951 253.608C679.316 255.478 683.429 253.982 684.924 250.618L687.541 245.01C687.541 244.636 687.915 244.636 688.289 244.636L694.271 245.757C698.009 246.505 701.748 243.888 702.122 240.149L702.87 234.167C702.87 233.793 703.244 233.42 703.244 233.42L709.599 232.672C713.338 232.298 715.955 228.559 715.207 225.195L714.086 218.839C713.712 218.465 714.086 218.465 714.46 218.091L720.068 215.474C723.432 213.979 724.928 209.866 723.059 206.501L719.694 200.893L720.068 200.145L724.554 196.033C727.545 193.416 727.545 188.929 724.554 186.686L720.068 182.2L719.694 181.452L723.059 175.844C724.928 172.853 723.432 168.741 720.068 166.871L714.46 164.254C714.086 164.254 713.712 163.88 714.086 163.507L715.207 157.525C715.955 153.786 713.338 150.421 709.599 149.673L703.244 149.3C703.244 148.926 702.87 148.926 702.87 148.552L702.122 142.196C701.748 138.457 698.009 135.84 694.271 136.588L688.289 138.084C687.915 138.084 687.541 138.084 687.541 137.71L684.924 131.728C683.429 128.363 679.316 127.241 675.951 129.111L670.343 132.102L669.596 132.102L665.483 127.241C663.988 125.746 662.492 125.372 660.623 125.372ZM660.623 130.98L660.997 131.354L665.483 135.84C667.352 138.084 670.717 138.457 673.334 136.962L678.942 133.971C679.316 133.597 679.69 133.971 679.69 134.345L682.307 139.953C683.429 142.57 686.42 144.065 689.41 143.692L695.766 142.196C696.14 142.196 696.14 142.57 696.514 142.944L697.262 149.3C697.262 152.291 699.879 154.534 702.87 154.908L708.852 155.655C709.599 155.655 709.599 156.029 709.599 156.403L708.478 162.385C707.73 165.376 709.225 168.367 711.842 169.488L717.824 172.105C718.198 172.479 718.198 172.853 717.824 173.227L714.833 178.835C713.338 181.078 714.086 184.443 715.955 186.686L720.815 190.799C721.189 191.173 721.189 191.547 720.815 191.92L715.955 196.033C714.086 197.902 713.338 201.267 714.833 203.884L717.824 209.492C718.198 209.866 718.198 210.24 717.824 210.24L711.842 212.857C709.225 213.979 707.73 216.97 708.478 219.96L709.599 226.316C709.599 226.69 709.599 227.064 708.852 227.064L702.87 227.812C699.879 228.185 697.262 230.429 697.262 233.42L696.514 239.775C696.514 240.149 696.14 240.149 695.766 240.149L689.41 239.028C686.42 238.28 683.429 239.775 682.307 242.392L679.69 248.374C679.69 248.748 679.316 248.748 678.942 248.374L673.334 245.383C670.717 243.888 667.352 244.636 665.483 246.879L660.997 251.365C660.997 251.739 660.623 251.739 660.249 251.365L655.762 246.879C653.893 244.636 650.528 243.888 647.911 245.383L642.677 248.374C642.303 248.748 641.929 248.748 641.556 248.374L638.938 242.392C637.817 239.775 634.826 238.28 631.835 239.028L625.853 240.149C625.479 240.149 625.105 240.149 625.105 239.775L624.358 233.42C623.984 230.429 621.367 228.185 618.75 227.812L612.394 227.064C612.02 227.064 611.646 226.69 611.646 226.316L613.142 219.96C613.515 216.97 612.02 214.352 609.403 212.857L603.795 210.24C603.421 210.24 603.047 209.866 603.421 209.492L606.412 203.884C607.907 201.267 607.534 197.902 605.29 196.033L600.43 191.92C600.43 191.547 600.43 191.173 600.43 190.799L605.29 186.686C607.534 184.443 607.907 181.078 606.412 178.835L603.421 173.227C603.047 172.853 603.421 172.479 603.795 172.105L609.403 169.488C612.02 168.367 613.515 165.376 613.142 162.385L611.646 156.403C611.646 156.029 612.02 155.655 612.394 155.655L618.75 154.908C621.367 154.534 623.984 152.291 624.358 149.3L625.105 142.944C625.105 142.57 625.479 142.196 625.853 142.57L631.835 143.692C634.826 144.065 637.817 142.57 638.938 139.953L641.556 134.345C641.929 133.971 642.303 133.597 642.677 133.971L647.911 136.962C650.528 138.457 653.893 138.084 655.762 135.84L660.249 131.354L660.623 130.98ZM701 165.376C689.037 168.367 665.109 180.704 656.136 199.024C650.154 192.668 641.182 183.695 620.619 183.695C620.619 183.695 640.06 193.79 652.772 216.222C654.267 218.839 658.379 218.839 659.875 215.848C666.605 202.015 678.568 180.704 701 165.376Z" fill="white"/>
<g clip-path="url(#clip2_204_2504)">
<path d="M1137.68 111.913C1126.46 111.913 1117.12 121.259 1117.12 132.475C1117.12 143.691 1126.46 153.038 1137.68 153.038C1148.89 153.038 1158.24 143.691 1158.24 132.475C1158.24 121.259 1148.89 111.913 1137.68 111.913ZM1192.26 111.913C1191.89 111.913 1191.51 111.913 1191.14 112.286C1190.39 112.286 1190.02 112.66 1190.02 113.034C1189.65 113.408 1189.27 113.782 1189.27 114.156C1188.9 114.53 1188.9 114.904 1188.9 115.277L1188.9 135.84L1188.9 156.403L1122.35 156.403C1111.88 156.403 1103.28 164.628 1103.28 175.096L1103.28 214.352C1103.28 219.96 1108.14 224.82 1113.75 224.82C1114.87 224.82 1115.99 224.447 1117.12 224.073L1117.12 257.347C1117.12 263.703 1122.35 269.311 1129.08 269.311C1132.44 269.311 1135.43 267.815 1137.68 265.572C1139.92 267.815 1143.66 269.311 1147.4 268.937C1153.75 268.563 1158.24 262.955 1158.24 256.599L1158.24 176.965L1191.89 176.965C1196.75 176.965 1201.61 173.601 1202.36 168.367C1203.1 163.132 1200.11 158.646 1195.63 157.151L1195.63 139.205L1219.55 139.205C1220.3 139.205 1221.05 139.205 1221.42 138.831C1222.17 138.457 1222.55 137.709 1222.92 137.336C1222.92 136.588 1223.29 135.84 1222.92 135.092C1222.92 134.345 1222.55 133.971 1222.17 133.597L1214.32 125.746L1222.17 117.894C1222.55 117.147 1222.92 116.773 1222.92 116.025C1223.29 115.277 1222.92 114.53 1222.92 114.156C1222.55 113.408 1222.17 113.034 1221.42 112.66C1221.05 112.286 1220.3 111.913 1219.55 111.913L1192.26 111.913ZM1137.68 118.642C1145.16 118.642 1151.14 124.998 1151.14 132.475C1151.14 139.953 1145.16 145.934 1137.68 145.934C1130.2 145.934 1123.84 139.953 1123.84 132.475C1123.84 124.998 1130.2 118.642 1137.68 118.642ZM1195.63 118.642L1211.33 118.642L1206.84 123.129C1206.47 123.502 1206.47 123.876 1206.1 124.25C1206.1 124.624 1206.1 124.998 1206.1 125.746C1206.1 126.12 1206.1 126.493 1206.1 126.867C1206.47 127.241 1206.47 127.615 1206.84 127.989L1211.33 132.475L1195.63 132.475L1195.63 118.642ZM1122.35 163.132L1192.26 163.132C1194.51 163.132 1196 165.002 1195.63 167.245C1195.25 168.74 1193.76 169.862 1191.89 169.862L1158.24 169.862C1154.5 169.862 1151.14 173.227 1151.14 176.965L1151.14 256.599C1151.14 259.59 1149.27 261.833 1146.65 262.207C1143.66 262.581 1141.04 260.338 1141.04 257.347L1141.04 217.717L1134.31 217.717L1134.31 257.347C1134.31 259.964 1132.07 262.207 1129.08 262.207C1126.09 262.207 1123.84 259.964 1123.84 257.347L1123.84 183.695L1117.12 183.695L1117.12 214.352C1117.12 216.221 1115.62 217.717 1113.75 217.717C1111.88 217.717 1110.39 216.221 1110.39 214.352L1110.39 175.096C1110.39 168.367 1115.62 163.132 1122.35 163.132Z" fill="white"/>
</g>
<path d="M892.421 269.311C860.268 269.311 833.35 292.49 833.35 322.026C833.35 336.233 839.706 348.944 849.8 358.665L849.426 360.16C847.183 366.89 841.575 370.629 838.21 371.75C836.341 372.498 834.845 373.619 834.098 375.115C832.976 376.984 833.724 379.601 834.845 380.723C838.21 384.088 841.949 383.714 844.94 383.714C855.782 383.714 868.867 378.106 876.719 373.993L879.71 372.498L878.588 372.124C883.074 373.246 887.561 373.619 892.047 373.619C920.461 373.619 944.762 356.795 950.37 332.12C951.118 329.129 951.492 325.391 951.492 322.026C951.492 292.49 924.947 269.311 892.421 269.311ZM892.421 276.04C921.583 276.04 944.762 296.603 944.762 322.026C944.762 325.017 944.389 328.008 943.641 330.625C939.154 351.561 917.844 366.89 892.047 366.89C887.935 366.89 883.822 366.516 880.083 365.768L878.588 365.394L873.728 368.011C866.25 371.75 853.539 376.984 844.94 376.984C843.818 376.984 843.818 376.61 843.071 376.61C847.931 374.367 853.165 369.881 855.782 362.403L856.156 362.03L857.277 356.422L855.782 354.926C846.061 346.701 840.08 334.737 840.08 322.026C840.08 296.603 863.633 276.04 892.421 276.04ZM863.633 299.594L863.633 306.323L921.209 306.323L921.209 299.594L863.633 299.594ZM863.633 316.418L863.633 323.147L921.209 323.147L921.209 316.418L863.633 316.418ZM957.474 330.625C957.1 331.372 957.1 332.494 956.726 333.616C956.726 334.737 956.352 335.859 955.978 336.98C971.307 342.962 981.775 355.3 981.775 368.385C981.775 378.106 976.541 387.079 967.568 393.808L965.699 395.304L966.447 397.547C967.942 404.277 974.298 408.015 978.784 410.258C972.055 411.38 956.726 409.885 948.875 400.912L947.753 399.416L945.884 399.79C942.893 400.164 939.154 400.538 935.042 400.538C914.105 400.538 896.907 392.313 890.552 380.349C887.561 380.349 884.944 379.975 882.7 379.601C889.056 396.425 908.871 407.267 935.042 407.267C938.781 407.267 942.145 406.894 945.136 406.52C952.614 413.997 964.951 417.362 974.672 417.362C975.419 417.362 975.793 417.362 976.541 417.362C982.149 416.988 985.888 415.866 987.757 413.249C988.131 412.502 988.505 411.006 988.131 409.885C987.757 407.641 985.514 406.146 982.523 404.65C979.532 403.155 975.419 400.912 973.55 397.547C982.897 390.07 988.505 379.601 988.505 368.385C988.505 351.935 976.167 337.354 957.474 330.625ZM863.633 333.242L863.633 339.971L904.385 339.971L904.385 333.242L863.633 333.242ZM948.127 353.431C946.258 355.674 944.389 357.917 942.519 360.16L958.222 360.16L958.222 353.431L948.127 353.431ZM929.808 370.255C925.321 372.872 920.087 375.115 914.479 376.984L958.222 376.984L958.222 370.255L929.808 370.255Z" fill="#FA0000"/>
<path d="M135.714 3.49145L178.709 3.49145L200.019 40.8782L178.709 77.8911L135.714 77.8911L114.03 40.8782L135.714 3.49145Z" fill="white"/>
<path d="M387.7 151.917L430.695 151.917L452.379 188.93L430.695 225.942L387.7 225.942L366.39 188.93L387.7 151.917Z" fill="#FA0000"/>
<path d="M638.565 3.49145L681.559 3.49145L702.87 40.8782L681.559 77.8911L638.565 77.8911L616.88 40.8782L638.565 3.49145Z" fill="white"/>
<path d="M889.056 151.917L932.05 151.917L953.735 188.93L932.05 225.942L889.056 225.942L867.745 188.93L889.056 151.917Z" fill="#FA0000"/>
<path d="M1141.42 0.499997L1184.41 0.499999L1205.72 37.8867L1184.41 74.8995L1141.42 74.8995L1119.73 37.8867L1141.42 0.499997Z" fill="white"/>
<path d="M153.562 29.0997H147.829V25.2114C149.391 25.2114 150.637 25.0785 151.568 24.8127C152.531 24.5468 153.296 24.1148 153.861 23.5166C154.426 22.8852 154.924 21.9879 155.356 20.8247H159.045V55.719H153.562V29.0997Z" fill="#1B1B1B"/>
<path d="M400.965 201.477C400.965 198.985 401.363 196.858 402.161 195.097C402.959 193.302 404.388 191.325 406.448 189.165C408.475 187.005 409.871 185.16 410.635 183.631C411.433 182.103 411.832 180.508 411.832 178.846C411.832 177.35 411.582 176.32 411.084 175.755C410.619 175.157 409.921 174.858 408.99 174.858C407.096 174.858 406.149 176.005 406.149 178.298V182.036H400.965V178.647C400.965 175.822 401.662 173.662 403.058 172.166C404.454 170.637 406.481 169.873 409.14 169.873C411.798 169.873 413.826 170.637 415.221 172.166C416.617 173.662 417.315 175.822 417.315 178.647C417.315 180.773 416.8 182.85 415.77 184.878C414.773 186.905 413.028 189.231 410.536 191.857C408.907 193.585 407.811 194.997 407.246 196.094C406.681 197.157 406.398 198.304 406.398 199.533V200.281H416.817V205.266H400.965V201.477Z" fill="white"/>
<path d="M659.266 56.2175C656.574 56.2175 654.531 55.4697 653.135 53.9743C651.772 52.4788 651.091 50.3353 651.091 47.5438V44.7024H656.275V47.793C656.275 50.0861 657.222 51.2326 659.117 51.2326C660.047 51.2326 660.745 50.9501 661.21 50.3852C661.709 49.787 661.958 48.7568 661.958 47.2945V44.4531C661.958 42.858 661.676 41.7281 661.111 41.0634C660.546 40.3655 659.632 40.0166 658.369 40.0166H656.525V35.0317H658.519C659.615 35.0317 660.429 34.7492 660.961 34.1843C661.526 33.6193 661.809 32.6722 661.809 31.3429V28.8006C661.809 27.6042 661.559 26.7235 661.061 26.1586C660.562 25.5936 659.898 25.3111 659.067 25.3111C657.306 25.3111 656.425 26.3912 656.425 28.5513V30.8444H651.241V29C651.241 26.2084 651.922 24.0649 653.284 22.5694C654.68 21.074 656.674 20.3262 659.266 20.3262C661.892 20.3262 663.886 21.074 665.248 22.5694C666.611 24.0317 667.292 26.1586 667.292 28.9501V30.1963C667.292 32.0906 666.976 33.6193 666.345 34.7824C665.713 35.9123 664.733 36.7265 663.404 37.225V37.3247C664.833 37.8565 665.863 38.7205 666.494 39.9169C667.126 41.1133 667.441 42.642 667.441 44.503V47.5936C667.441 50.3852 666.744 52.5287 665.348 54.0241C663.985 55.4864 661.958 56.2175 659.266 56.2175Z" fill="#1B1B1B"/>
<path d="M910.236 198.935H899.768V193.95L909.738 170.372H915.72V193.95H918.312V198.935H915.72V205.266H910.236V198.935ZM910.236 193.95V180.341H910.137L904.753 193.95H910.236Z" fill="white"/>
<path d="M1163.24 56.2175C1160.58 56.2175 1158.55 55.4697 1157.15 53.9743C1155.76 52.4456 1155.06 50.2688 1155.06 47.4441V44.7024H1160.25V47.8429C1160.25 50.1027 1161.19 51.2326 1163.09 51.2326C1164.98 51.2326 1165.93 50.1027 1165.93 47.8429V40.0166C1165.93 37.7235 1164.98 36.577 1163.09 36.577C1161.19 36.577 1160.25 37.7235 1160.25 40.0166V40.3157H1155.06L1156.06 20.8247H1170.51V25.8096H1160.94L1160.49 34.1344H1160.59C1161.62 32.4395 1163.2 31.5921 1165.33 31.5921C1167.32 31.5921 1168.84 32.2734 1169.87 33.6359C1170.9 34.9985 1171.41 36.9758 1171.41 39.5679V47.4441C1171.41 50.2688 1170.71 52.4456 1169.32 53.9743C1167.92 55.4697 1165.89 56.2175 1163.24 56.2175Z" fill="#1B1B1B"/>
<defs>
<clipPath id="clip0_204_2504">
<rect width="273.235" height="314.671" fill="white" transform="translate(817.149 53.9634) rotate(90)"/>
</clipPath>
<clipPath id="clip1_204_2504">
<rect width="273.235" height="314.671" fill="white" transform="translate(1320 53.9634) rotate(90)"/>
</clipPath>
<clipPath id="clip2_204_2504">
<rect width="157.647" height="119.326" fill="white" transform="translate(1222.17 111.913) rotate(90)"/>
</clipPath>
</defs>
</svg>
